<mxfile host="app.diagrams.net" modified="2023-07-18T15:11:58.642Z" agent="Mozilla/5.0 (Macintosh; Intel Mac OS X 10_15_7) AppleWebKit/537.36 (KHTML, like Gecko) Chrome/114.0.0.0 Safari/537.36" etag="FnvgnYyDbAWI6ZPRZy4q" version="21.6.2" type="device">
  <diagram name="Seite-1" id="ttU3lqehHIj7wodjrnfW">
    <mxGraphModel dx="1466" dy="1996" grid="1" gridSize="10" guides="1" tooltips="1" connect="1" arrows="1" fold="1" page="1" pageScale="1" pageWidth="827" pageHeight="1169" math="0" shadow="0">
      <root>
        <mxCell id="0" />
        <mxCell id="1" parent="0" />
        <mxCell id="KbfwHdAT0KXHRWRxRUUH-71" value="" style="ellipse;whiteSpace=wrap;html=1;aspect=fixed;" parent="1" vertex="1">
          <mxGeometry x="156.75" y="2112" width="110" height="110" as="geometry" />
        </mxCell>
        <mxCell id="KbfwHdAT0KXHRWRxRUUH-4" value="" style="sketch=0;pointerEvents=1;shadow=0;dashed=0;html=1;strokeColor=none;fillColor=#505050;labelPosition=center;verticalLabelPosition=bottom;verticalAlign=top;outlineConnect=0;align=center;shape=mxgraph.office.devices.tablet_windows_8;" parent="1" vertex="1">
          <mxGeometry x="130" y="110" width="129.6" height="81" as="geometry" />
        </mxCell>
        <mxCell id="KbfwHdAT0KXHRWRxRUUH-1" value="" style="rounded=0;whiteSpace=wrap;html=1;" parent="1" vertex="1">
          <mxGeometry x="4" y="772" width="820" height="310" as="geometry" />
        </mxCell>
        <mxCell id="KbfwHdAT0KXHRWRxRUUH-3" value="" style="shape=image;html=1;verticalAlign=top;verticalLabelPosition=bottom;labelBackgroundColor=#ffffff;imageAspect=0;aspect=fixed;image=https://cdn4.iconfinder.com/data/icons/ionicons/512/icon-iphone-128.png" parent="1" vertex="1">
          <mxGeometry x="70" y="130" width="128" height="128" as="geometry" />
        </mxCell>
        <mxCell id="KbfwHdAT0KXHRWRxRUUH-5" value="" style="shape=image;html=1;verticalAlign=top;verticalLabelPosition=bottom;labelBackgroundColor=#ffffff;imageAspect=0;aspect=fixed;image=https://cdn4.iconfinder.com/data/icons/48-bubbles/48/29.Mac-128.png" parent="1" vertex="1">
          <mxGeometry x="220" y="53" width="128" height="128" as="geometry" />
        </mxCell>
        <mxCell id="KbfwHdAT0KXHRWRxRUUH-6" value="&lt;div style=&quot;text-align: left; font-size: 40px;&quot;&gt;&lt;span style=&quot;background-color: initial;&quot;&gt;&lt;font style=&quot;font-size: 40px;&quot;&gt;Apps &amp;amp;&lt;/font&gt;&lt;/span&gt;&lt;/div&gt;&lt;div style=&quot;text-align: left; font-size: 40px;&quot;&gt;&lt;span style=&quot;background-color: initial;&quot;&gt;&lt;font style=&quot;font-size: 40px;&quot;&gt;Websites&lt;/font&gt;&lt;/span&gt;&lt;/div&gt;" style="text;html=1;strokeColor=none;fillColor=none;align=center;verticalAlign=middle;whiteSpace=wrap;rounded=0;" parent="1" vertex="1">
          <mxGeometry x="440" y="62" width="250" height="110" as="geometry" />
        </mxCell>
        <mxCell id="KbfwHdAT0KXHRWRxRUUH-8" value="Lorem ipsum dolor sit amet, consetetur sadipscing elitr, sed diam nonumy eirmod tempor invidunt ut labore et dolore magna aliquyam erat, sed diam voluptua." style="text;html=1;strokeColor=none;fillColor=none;align=left;verticalAlign=middle;whiteSpace=wrap;rounded=0;" parent="1" vertex="1">
          <mxGeometry x="475" y="181" width="235" height="30" as="geometry" />
        </mxCell>
        <mxCell id="KbfwHdAT0KXHRWRxRUUH-9" value="CtA" style="html=1;shadow=0;dashed=0;shape=mxgraph.bootstrap.rrect;rSize=5;strokeColor=none;strokeWidth=1;fillColor=#0085FC;fontColor=#FFFFFF;whiteSpace=wrap;align=center;verticalAlign=middle;spacingLeft=0;fontStyle=0;fontSize=16;spacing=5;" parent="1" vertex="1">
          <mxGeometry x="475" y="240" width="80" height="40" as="geometry" />
        </mxCell>
        <mxCell id="KbfwHdAT0KXHRWRxRUUH-10" value="Home" style="text;html=1;strokeColor=none;fillColor=none;align=center;verticalAlign=middle;whiteSpace=wrap;rounded=0;" parent="1" vertex="1">
          <mxGeometry x="485" y="-30" width="60" height="30" as="geometry" />
        </mxCell>
        <mxCell id="KbfwHdAT0KXHRWRxRUUH-11" value="Team" style="text;html=1;strokeColor=none;fillColor=none;align=center;verticalAlign=middle;whiteSpace=wrap;rounded=0;" parent="1" vertex="1">
          <mxGeometry x="620" y="-30" width="60" height="30" as="geometry" />
        </mxCell>
        <mxCell id="KbfwHdAT0KXHRWRxRUUH-12" value="Referenzen" style="text;html=1;strokeColor=none;fillColor=none;align=center;verticalAlign=middle;whiteSpace=wrap;rounded=0;" parent="1" vertex="1">
          <mxGeometry x="690" y="-30" width="60" height="30" as="geometry" />
        </mxCell>
        <mxCell id="KbfwHdAT0KXHRWRxRUUH-13" value="Kontakt" style="text;html=1;strokeColor=none;fillColor=none;align=center;verticalAlign=middle;whiteSpace=wrap;rounded=0;" parent="1" vertex="1">
          <mxGeometry x="764" y="-30" width="60" height="30" as="geometry" />
        </mxCell>
        <mxCell id="KbfwHdAT0KXHRWRxRUUH-14" value="Leistungen" style="text;html=1;strokeColor=none;fillColor=none;align=center;verticalAlign=middle;whiteSpace=wrap;rounded=0;" parent="1" vertex="1">
          <mxGeometry x="555" y="-30" width="60" height="30" as="geometry" />
        </mxCell>
        <mxCell id="KbfwHdAT0KXHRWRxRUUH-15" value="" style="ellipse;whiteSpace=wrap;html=1;aspect=fixed;" parent="1" vertex="1">
          <mxGeometry x="81" y="600" width="50" height="50" as="geometry" />
        </mxCell>
        <mxCell id="KbfwHdAT0KXHRWRxRUUH-16" value="" style="ellipse;whiteSpace=wrap;html=1;aspect=fixed;" parent="1" vertex="1">
          <mxGeometry x="231" y="600" width="50" height="50" as="geometry" />
        </mxCell>
        <mxCell id="KbfwHdAT0KXHRWRxRUUH-17" value="" style="ellipse;whiteSpace=wrap;html=1;aspect=fixed;" parent="1" vertex="1">
          <mxGeometry x="390" y="600" width="50" height="50" as="geometry" />
        </mxCell>
        <mxCell id="KbfwHdAT0KXHRWRxRUUH-18" value="" style="ellipse;whiteSpace=wrap;html=1;aspect=fixed;" parent="1" vertex="1">
          <mxGeometry x="531" y="600" width="50" height="50" as="geometry" />
        </mxCell>
        <mxCell id="KbfwHdAT0KXHRWRxRUUH-19" value="" style="ellipse;whiteSpace=wrap;html=1;aspect=fixed;" parent="1" vertex="1">
          <mxGeometry x="681" y="600" width="50" height="50" as="geometry" />
        </mxCell>
        <mxCell id="KbfwHdAT0KXHRWRxRUUH-20" value="schnell, sicher &amp;amp; anpassbar" style="text;html=1;strokeColor=none;fillColor=none;align=center;verticalAlign=middle;whiteSpace=wrap;rounded=0;" parent="1" vertex="1">
          <mxGeometry x="76" y="670" width="60" height="30" as="geometry" />
        </mxCell>
        <mxCell id="KbfwHdAT0KXHRWRxRUUH-21" value="Serverstandort in Deutschland" style="text;html=1;strokeColor=none;fillColor=none;align=center;verticalAlign=middle;whiteSpace=wrap;rounded=0;" parent="1" vertex="1">
          <mxGeometry x="231" y="670" width="60" height="30" as="geometry" />
        </mxCell>
        <mxCell id="KbfwHdAT0KXHRWRxRUUH-22" value="Betrieb mit 100% Ökostrom" style="text;html=1;strokeColor=none;fillColor=none;align=center;verticalAlign=middle;whiteSpace=wrap;rounded=0;" parent="1" vertex="1">
          <mxGeometry x="385" y="670" width="60" height="30" as="geometry" />
        </mxCell>
        <mxCell id="KbfwHdAT0KXHRWRxRUUH-23" value="Barrierefrei" style="text;html=1;strokeColor=none;fillColor=none;align=center;verticalAlign=middle;whiteSpace=wrap;rounded=0;" parent="1" vertex="1">
          <mxGeometry x="531" y="660" width="60" height="30" as="geometry" />
        </mxCell>
        <mxCell id="KbfwHdAT0KXHRWRxRUUH-24" value="Mehrsprachig" style="text;html=1;strokeColor=none;fillColor=none;align=center;verticalAlign=middle;whiteSpace=wrap;rounded=0;" parent="1" vertex="1">
          <mxGeometry x="671" y="660" width="60" height="30" as="geometry" />
        </mxCell>
        <mxCell id="KbfwHdAT0KXHRWRxRUUH-25" value="" style="whiteSpace=wrap;html=1;aspect=fixed;fillColor=#fff2cc;strokeColor=#d6b656;" parent="1" vertex="1">
          <mxGeometry x="4" y="774.5" width="305" height="305" as="geometry" />
        </mxCell>
        <mxCell id="KbfwHdAT0KXHRWRxRUUH-26" value="Actor" style="shape=umlActor;verticalLabelPosition=bottom;verticalAlign=top;html=1;outlineConnect=0;" parent="1" vertex="1">
          <mxGeometry x="70" y="897" width="30" height="60" as="geometry" />
        </mxCell>
        <mxCell id="KbfwHdAT0KXHRWRxRUUH-27" value="Actor" style="shape=umlActor;verticalLabelPosition=bottom;verticalAlign=top;html=1;outlineConnect=0;" parent="1" vertex="1">
          <mxGeometry x="160" y="872" width="30" height="60" as="geometry" />
        </mxCell>
        <mxCell id="KbfwHdAT0KXHRWRxRUUH-28" value="&lt;h1&gt;Mission / Text über uns&lt;/h1&gt;&lt;p&gt;Lorem ipsum dolor sit amet, consetetur sadipscing elitr, sed diam nonumy eirmod tempor invidunt ut labore et dolore magna aliquyam erat, sed diam voluptua.&lt;/p&gt;&lt;p&gt;&amp;nbsp;At vero eos et accusam et justo duo dolores et ea rebum. Stet clita kasd gubergren, no sea takimata sanctus est Lorem ipsum dolor sit amet. Lorem ipsum dolor sit amet, consetetur sadipscing elitr, sed diam nonumy eirmod tempor invidunt ut labore et dolore magna aliquyam erat, sed diam voluptua.&lt;/p&gt;&lt;p&gt;At vero eos et accusam et justo duo dolores et ea rebum. Stet clita kasd gubergren, no sea takimata sanctus est Lorem ipsum dolor sit amet.&lt;/p&gt;" style="text;html=1;strokeColor=none;fillColor=none;spacing=5;spacingTop=-20;whiteSpace=wrap;overflow=hidden;rounded=0;" parent="1" vertex="1">
          <mxGeometry x="355" y="792" width="455" height="270" as="geometry" />
        </mxCell>
        <mxCell id="KbfwHdAT0KXHRWRxRUUH-29" value="CtA" style="html=1;shadow=0;dashed=0;shape=mxgraph.bootstrap.rrect;rSize=5;strokeColor=none;strokeWidth=1;fillColor=#0085FC;fontColor=#FFFFFF;whiteSpace=wrap;align=center;verticalAlign=middle;spacingLeft=0;fontStyle=0;fontSize=16;spacing=5;" parent="1" vertex="1">
          <mxGeometry x="359" y="1002" width="80" height="40" as="geometry" />
        </mxCell>
        <mxCell id="KbfwHdAT0KXHRWRxRUUH-30" value="&lt;font style=&quot;font-size: 24px;&quot;&gt;&lt;b&gt;Der rote Faden zu deinem Stück Software&lt;/b&gt;&lt;/font&gt;" style="text;html=1;strokeColor=none;fillColor=none;align=left;verticalAlign=middle;whiteSpace=wrap;rounded=0;" parent="1" vertex="1">
          <mxGeometry x="40" y="1162" width="510" height="30" as="geometry" />
        </mxCell>
        <mxCell id="KbfwHdAT0KXHRWRxRUUH-36" style="edgeStyle=orthogonalEdgeStyle;orthogonalLoop=1;jettySize=auto;html=1;exitX=0.8;exitY=0.8;exitDx=0;exitDy=0;exitPerimeter=0;entryX=0;entryY=0.5;entryDx=0;entryDy=0;curved=1;" parent="1" source="KbfwHdAT0KXHRWRxRUUH-31" target="KbfwHdAT0KXHRWRxRUUH-33" edge="1">
          <mxGeometry relative="1" as="geometry" />
        </mxCell>
        <mxCell id="KbfwHdAT0KXHRWRxRUUH-31" value="" style="ellipse;shape=cloud;whiteSpace=wrap;html=1;" parent="1" vertex="1">
          <mxGeometry x="35" y="1232" width="120" height="80" as="geometry" />
        </mxCell>
        <mxCell id="KbfwHdAT0KXHRWRxRUUH-38" style="edgeStyle=orthogonalEdgeStyle;orthogonalLoop=1;jettySize=auto;html=1;exitX=1;exitY=0.5;exitDx=0;exitDy=0;entryX=0;entryY=0.5;entryDx=0;entryDy=0;curved=1;" parent="1" source="KbfwHdAT0KXHRWRxRUUH-33" target="KbfwHdAT0KXHRWRxRUUH-35" edge="1">
          <mxGeometry relative="1" as="geometry" />
        </mxCell>
        <mxCell id="KbfwHdAT0KXHRWRxRUUH-33" value="" style="shape=process;whiteSpace=wrap;html=1;backgroundOutline=1;" parent="1" vertex="1">
          <mxGeometry x="219" y="1282" width="120" height="60" as="geometry" />
        </mxCell>
        <mxCell id="KbfwHdAT0KXHRWRxRUUH-34" value="" style="sketch=0;aspect=fixed;pointerEvents=1;shadow=0;dashed=0;html=1;strokeColor=none;labelPosition=center;verticalLabelPosition=bottom;verticalAlign=top;align=center;shape=mxgraph.mscae.enterprise.website_generic;fillColor=#7D7D7D;" parent="1" vertex="1">
          <mxGeometry x="670" y="1212" width="50" height="44" as="geometry" />
        </mxCell>
        <mxCell id="KbfwHdAT0KXHRWRxRUUH-39" style="edgeStyle=orthogonalEdgeStyle;orthogonalLoop=1;jettySize=auto;html=1;exitX=1;exitY=0.5;exitDx=0;exitDy=0;entryX=0;entryY=0.5;entryDx=0;entryDy=0;entryPerimeter=0;curved=1;" parent="1" source="KbfwHdAT0KXHRWRxRUUH-35" target="KbfwHdAT0KXHRWRxRUUH-34" edge="1">
          <mxGeometry relative="1" as="geometry" />
        </mxCell>
        <mxCell id="KbfwHdAT0KXHRWRxRUUH-35" value="" style="rounded=0;whiteSpace=wrap;html=1;" parent="1" vertex="1">
          <mxGeometry x="465" y="1272" width="120" height="60" as="geometry" />
        </mxCell>
        <mxCell id="KbfwHdAT0KXHRWRxRUUH-37" value="Actor" style="shape=umlActor;verticalLabelPosition=bottom;verticalAlign=top;html=1;outlineConnect=0;" parent="1" vertex="1">
          <mxGeometry x="185" y="1232" width="30" height="60" as="geometry" />
        </mxCell>
        <mxCell id="KbfwHdAT0KXHRWRxRUUH-40" value="&lt;font style=&quot;font-size: 24px;&quot;&gt;&lt;b&gt;Wir sind für dich da: Dein langfristiger Partner im Web&lt;/b&gt;&lt;/font&gt;" style="text;html=1;strokeColor=none;fillColor=none;align=left;verticalAlign=middle;whiteSpace=wrap;rounded=0;" parent="1" vertex="1">
          <mxGeometry x="40" y="1462" width="695" height="30" as="geometry" />
        </mxCell>
        <mxCell id="KbfwHdAT0KXHRWRxRUUH-41" value="Logo" style="rounded=1;whiteSpace=wrap;html=1;" parent="1" vertex="1">
          <mxGeometry x="40" y="1562" width="80" height="40" as="geometry" />
        </mxCell>
        <mxCell id="KbfwHdAT0KXHRWRxRUUH-42" value="Logo" style="rounded=1;whiteSpace=wrap;html=1;" parent="1" vertex="1">
          <mxGeometry x="150" y="1562" width="80" height="40" as="geometry" />
        </mxCell>
        <mxCell id="KbfwHdAT0KXHRWRxRUUH-43" value="Logo" style="rounded=1;whiteSpace=wrap;html=1;" parent="1" vertex="1">
          <mxGeometry x="260" y="1562" width="80" height="40" as="geometry" />
        </mxCell>
        <mxCell id="KbfwHdAT0KXHRWRxRUUH-44" value="Logo" style="rounded=1;whiteSpace=wrap;html=1;" parent="1" vertex="1">
          <mxGeometry x="370" y="1562" width="80" height="40" as="geometry" />
        </mxCell>
        <mxCell id="KbfwHdAT0KXHRWRxRUUH-45" value="Logo" style="rounded=1;whiteSpace=wrap;html=1;" parent="1" vertex="1">
          <mxGeometry x="471.5" y="1562" width="80" height="40" as="geometry" />
        </mxCell>
        <mxCell id="KbfwHdAT0KXHRWRxRUUH-46" value="Logo" style="rounded=1;whiteSpace=wrap;html=1;" parent="1" vertex="1">
          <mxGeometry x="43.5" y="1622" width="80" height="40" as="geometry" />
        </mxCell>
        <mxCell id="KbfwHdAT0KXHRWRxRUUH-47" value="Logo" style="rounded=1;whiteSpace=wrap;html=1;" parent="1" vertex="1">
          <mxGeometry x="153.5" y="1622" width="80" height="40" as="geometry" />
        </mxCell>
        <mxCell id="KbfwHdAT0KXHRWRxRUUH-48" value="Logo" style="rounded=1;whiteSpace=wrap;html=1;" parent="1" vertex="1">
          <mxGeometry x="263.5" y="1622" width="80" height="40" as="geometry" />
        </mxCell>
        <mxCell id="KbfwHdAT0KXHRWRxRUUH-49" value="Logo" style="rounded=1;whiteSpace=wrap;html=1;" parent="1" vertex="1">
          <mxGeometry x="373.5" y="1622" width="80" height="40" as="geometry" />
        </mxCell>
        <mxCell id="KbfwHdAT0KXHRWRxRUUH-50" value="Logo" style="rounded=1;whiteSpace=wrap;html=1;" parent="1" vertex="1">
          <mxGeometry x="475" y="1622" width="80" height="40" as="geometry" />
        </mxCell>
        <mxCell id="KbfwHdAT0KXHRWRxRUUH-51" value="&lt;p style=&quot;border-color: var(--border-color);&quot;&gt;Lorem ipsum dolor sit amet, consetetur sadipscing elitr, sed diam nonumy eirmod tempor invidunt ut labore et dolore magna aliquyam erat, sed diam voluptua.&lt;/p&gt;" style="text;html=1;strokeColor=none;fillColor=none;align=left;verticalAlign=middle;whiteSpace=wrap;rounded=0;" parent="1" vertex="1">
          <mxGeometry x="40" y="1511" width="675" height="30" as="geometry" />
        </mxCell>
        <mxCell id="KbfwHdAT0KXHRWRxRUUH-53" value="&lt;p style=&quot;border-color: var(--border-color);&quot;&gt;Lorem ipsum dolor sit amet, consetetur sadipscing elitr, sed diam nonumy eirmod tempor invidunt ut labore et dolore magna aliquyam erat, sed diam voluptua.&lt;/p&gt;" style="text;html=1;strokeColor=none;fillColor=none;align=left;verticalAlign=middle;whiteSpace=wrap;rounded=0;" parent="1" vertex="1">
          <mxGeometry x="195" y="1742" width="440" height="30" as="geometry" />
        </mxCell>
        <mxCell id="KbfwHdAT0KXHRWRxRUUH-54" value="" style="ellipse;whiteSpace=wrap;html=1;aspect=fixed;" parent="1" vertex="1">
          <mxGeometry x="360" y="1812" width="20" height="20" as="geometry" />
        </mxCell>
        <mxCell id="KbfwHdAT0KXHRWRxRUUH-55" value="" style="ellipse;whiteSpace=wrap;html=1;aspect=fixed;" parent="1" vertex="1">
          <mxGeometry x="393.5" y="1812" width="20" height="20" as="geometry" />
        </mxCell>
        <mxCell id="KbfwHdAT0KXHRWRxRUUH-56" value="" style="ellipse;whiteSpace=wrap;html=1;aspect=fixed;" parent="1" vertex="1">
          <mxGeometry x="429" y="1812" width="20" height="20" as="geometry" />
        </mxCell>
        <mxCell id="KbfwHdAT0KXHRWRxRUUH-60" value="" style="triangle;whiteSpace=wrap;html=1;" parent="1" vertex="1">
          <mxGeometry x="755" y="1742" width="33" height="40" as="geometry" />
        </mxCell>
        <mxCell id="KbfwHdAT0KXHRWRxRUUH-61" value="" style="triangle;whiteSpace=wrap;html=1;rotation=-180;" parent="1" vertex="1">
          <mxGeometry x="54" y="1742" width="31" height="40" as="geometry" />
        </mxCell>
        <mxCell id="KbfwHdAT0KXHRWRxRUUH-62" value="&lt;i&gt;Kundenstimmen&lt;/i&gt;" style="text;html=1;strokeColor=none;fillColor=none;align=center;verticalAlign=middle;whiteSpace=wrap;rounded=0;" parent="1" vertex="1">
          <mxGeometry x="333" y="1722" width="141" height="30" as="geometry" />
        </mxCell>
        <mxCell id="KbfwHdAT0KXHRWRxRUUH-67" value="&lt;h1&gt;Apps&lt;/h1&gt;&lt;p&gt;&lt;/p&gt;&lt;ul&gt;&lt;li&gt;Lorem ipsum dolor sit amet, consectetur adipisicing elit, sed do eiusmod tempor incididunt ut labore et dolore magna aliqua.&lt;/li&gt;&lt;li&gt;Lorem ipsum dolor sit amet, consectetur adipisicing elit, sed do eiusmod tempor incididunt ut labore et dolore magna aliqua.&lt;/li&gt;&lt;li&gt;Lorem ipsum dolor sit amet, consectetur adipisicing elit, sed do eiusmod tempor incididunt ut labore et dolore magna aliqua.&lt;/li&gt;&lt;/ul&gt;&lt;p&gt;&lt;/p&gt;" style="text;html=1;strokeColor=none;fillColor=none;spacing=5;spacingTop=-20;whiteSpace=wrap;overflow=hidden;rounded=0;" parent="1" vertex="1">
          <mxGeometry x="43.5" y="1892" width="336.5" height="240" as="geometry" />
        </mxCell>
        <mxCell id="KbfwHdAT0KXHRWRxRUUH-69" value="&lt;h1&gt;Website&lt;/h1&gt;&lt;p&gt;&lt;/p&gt;&lt;ul&gt;&lt;li&gt;Lorem ipsum dolor sit amet, consectetur adipisicing elit, sed do eiusmod tempor incididunt ut labore et dolore magna aliqua.&lt;/li&gt;&lt;li&gt;Lorem ipsum dolor sit amet, consectetur adipisicing elit, sed do eiusmod tempor incididunt ut labore et dolore magna aliqua.&lt;/li&gt;&lt;li&gt;Lorem ipsum dolor sit amet, consectetur adipisicing elit, sed do eiusmod tempor incididunt ut labore et dolore magna aliqua.&lt;/li&gt;&lt;/ul&gt;&lt;p&gt;&lt;/p&gt;" style="text;html=1;strokeColor=none;fillColor=none;spacing=5;spacingTop=-20;whiteSpace=wrap;overflow=hidden;rounded=0;" parent="1" vertex="1">
          <mxGeometry x="410" y="1892" width="336.5" height="240" as="geometry" />
        </mxCell>
        <mxCell id="KbfwHdAT0KXHRWRxRUUH-70" value="Dominik" style="shape=umlActor;verticalLabelPosition=bottom;verticalAlign=top;html=1;outlineConnect=0;" parent="1" vertex="1">
          <mxGeometry x="196.75" y="2132" width="30" height="60" as="geometry" />
        </mxCell>
        <mxCell id="KbfwHdAT0KXHRWRxRUUH-73" value="" style="ellipse;whiteSpace=wrap;html=1;aspect=fixed;" parent="1" vertex="1">
          <mxGeometry x="537.5" y="2112" width="110" height="110" as="geometry" />
        </mxCell>
        <mxCell id="KbfwHdAT0KXHRWRxRUUH-74" value="Mareike" style="shape=umlActor;verticalLabelPosition=bottom;verticalAlign=top;html=1;outlineConnect=0;" parent="1" vertex="1">
          <mxGeometry x="577.5" y="2132" width="30" height="60" as="geometry" />
        </mxCell>
        <mxCell id="KbfwHdAT0KXHRWRxRUUH-75" value="Termin buchen" style="html=1;shadow=0;dashed=0;shape=mxgraph.bootstrap.rrect;rSize=5;strokeColor=none;strokeWidth=1;fillColor=#0085FC;fontColor=#FFFFFF;whiteSpace=wrap;align=center;verticalAlign=middle;spacingLeft=0;fontStyle=0;fontSize=16;spacing=5;" parent="1" vertex="1">
          <mxGeometry x="160" y="2232" width="108.25" height="50" as="geometry" />
        </mxCell>
        <mxCell id="KbfwHdAT0KXHRWRxRUUH-76" value="Termin buchen" style="html=1;shadow=0;dashed=0;shape=mxgraph.bootstrap.rrect;rSize=5;strokeColor=none;strokeWidth=1;fillColor=#0085FC;fontColor=#FFFFFF;whiteSpace=wrap;align=center;verticalAlign=middle;spacingLeft=0;fontStyle=0;fontSize=16;spacing=5;" parent="1" vertex="1">
          <mxGeometry x="540" y="2232" width="105" height="50" as="geometry" />
        </mxCell>
        <mxCell id="KbfwHdAT0KXHRWRxRUUH-77" value="&lt;h1&gt;FAQ&lt;/h1&gt;&lt;p&gt;Lorem ipsum dolor sit amet, consectetur adipisicing elit, sed do eiusmod tempor incididunt ut labore et dolore magna aliqua?&lt;/p&gt;&lt;p&gt;Lorem ipsum dolor sit amet, consetetur sadipscing elitr, sed diam nonumy eirmod tempor invidunt ut labore et dolore magna aliquyam erat, sed diam voluptua. At vero eos et accusam et justo duo dolores et ea rebum. Stet clita kasd gubergren, no sea takimata sanctus est Lorem ipsum dolor sit amet. Lorem ipsum dolor sit amet, consetetur sadipscing elitr, sed diam nonumy eirmod tempor invidunt ut labore et dolore magna aliquyam erat, sed diam voluptua. At vero eos et accusam et justo duo dolores et ea rebum. Stet clita kasd gubergren, no sea takimata sanctus est Lorem ipsum dolor sit amet.&lt;br&gt;&lt;/p&gt;&lt;p&gt;&lt;br&gt;&lt;/p&gt;&lt;p style=&quot;border-color: var(--border-color);&quot;&gt;Lorem ipsum dolor sit amet, consectetur adipisicing elit, sed do eiusmod tempor incididunt ut labore et dolore magna aliqua?&lt;/p&gt;&lt;p style=&quot;border-color: var(--border-color);&quot;&gt;Lorem ipsum dolor sit amet, consetetur sadipscing elitr, sed diam nonumy eirmod tempor invidunt ut labore et dolore magna aliquyam erat, sed diam voluptua. At vero eos et accusam et justo duo dolores et ea rebum. Stet clita kasd gubergren, no sea takimata sanctus est Lorem ipsum dolor sit amet. Lorem ipsum dolor sit amet, consetetur sadipscing elitr, sed diam nonumy eirmod tempor invidunt ut labore et dolore magna aliquyam erat, sed diam voluptua. At vero eos et accusam et justo duo dolores et ea rebum. Stet clita kasd gubergren, no sea takimata sanctus est Lorem ipsum dolor sit amet.&lt;/p&gt;&lt;p style=&quot;border-color: var(--border-color);&quot;&gt;&lt;br&gt;&lt;/p&gt;&lt;p style=&quot;border-color: var(--border-color);&quot;&gt;Lorem ipsum dolor sit amet, consectetur adipisicing elit, sed do eiusmod tempor incididunt ut labore et dolore magna aliqua?&lt;/p&gt;&lt;p style=&quot;border-color: var(--border-color);&quot;&gt;Lorem ipsum dolor sit amet, consetetur sadipscing elitr, sed diam nonumy eirmod tempor invidunt ut labore et dolore magna aliquyam erat, sed diam voluptua. At vero eos et accusam et justo duo dolores et ea rebum. Stet clita kasd gubergren, no sea takimata sanctus est Lorem ipsum dolor sit amet. Lorem ipsum dolor sit amet, consetetur sadipscing elitr, sed diam nonumy eirmod tempor invidunt ut labore et dolore magna aliquyam erat, sed diam voluptua. At vero eos et accusam et justo duo dolores et ea rebum. Stet clita kasd gubergren, no sea takimata sanctus est Lorem ipsum dolor sit amet.&lt;/p&gt;" style="text;html=1;strokeColor=none;fillColor=none;spacing=5;spacingTop=-20;whiteSpace=wrap;overflow=hidden;rounded=0;" parent="1" vertex="1">
          <mxGeometry x="61.75" y="2382" width="748.25" height="440" as="geometry" />
        </mxCell>
        <mxCell id="KbfwHdAT0KXHRWRxRUUH-78" value="" style="rounded=0;whiteSpace=wrap;html=1;" parent="1" vertex="1">
          <mxGeometry x="5" y="2986.62" width="820" height="150" as="geometry" />
        </mxCell>
        <mxCell id="KbfwHdAT0KXHRWRxRUUH-79" value="" style="shape=image;verticalLabelPosition=bottom;labelBackgroundColor=default;verticalAlign=top;aspect=fixed;imageAspect=0;image=data:image/png,iVBORw0KGgoAAAANSUhEUgAACdoAAADkCAYAAACFIASDAAABXWlDQ1BJQ0MgUHJvZmlsZQAAKJFtkDFLw1AQx//VStBWUShODnERlFZKKiJutUIUOoRqsQYc0tfaCGn7SCLi5hdwEXF0FD+A0EVF8AsIioJTN8FV6KIl3mvUtOo9jvvx5+7e8Qf6ogbnVhhAtebaOXVJLmzqsvQCCcP0FjBoMIenNS1LLfiuvdF6REjU+4TY9XB9ZSaakzPzqn4q6YXXv/09MVQqO4zqB6XCuO0CoSSxtudywQfEMZuOIj4WXPH5XHDR58tOz3ouQ3xHPMpMo0TcJI4Xu/RKF1etXfZ1g7g+Wq7l16iOU04gCxUy8rDgwoZBvIJl8uj/mbnOTAZ1cOxT/w4qMGlSRpoUTlvKxKuogWEWcWIFScqU8Pq3h4HmkA+Lh/QVD7StGHBhAiMs0KaOgLEIcKtzwzZ+nA21ws52SvE50gAGTjzvbQOQpoH2k+e9NzyvfQb0PwM3rU/Z9WImg+/0IgAAAIplWElmTU0AKgAAAAgABAEaAAUAAAABAAAAPgEbAAUAAAABAAAARgEoAAMAAAABAAIAAIdpAAQAAAABAAAATgAAAAAAAACQAAAAAQAAAJAAAAABAAOShgAHAAAAEgAAAHigAgAEAAAAAQAACdqgAwAEAAAAAQAAAOQAAAAAQVNDSUkAAABTY3JlZW5zaG90A3LIOwAAAAlwSFlzAAAWJQAAFiUBSVIk8AAAAddpVFh0WE1MOmNvbS5hZG9iZS54bXAAAAAAADx4OnhtcG1ldGEgeG1sbnM6eD0iYWRvYmU6bnM6bWV0YS8iIHg6eG1wdGs9IlhNUCBDb3JlIDYuMC4wIj4KICAgPHJkZjpSREYgeG1sbnM6cmRmPSJodHRwOi8vd3d3LnczLm9yZy8xOTk5LzAyLzIyLXJkZi1zeW50YXgtbnMjIj4KICAgICAgPHJkZjpEZXNjcmlwdGlvbiByZGY6YWJvdXQ9IiIKICAgICAgICAgICAgeG1sbnM6ZXhpZj0iaHR0cDovL25zLmFkb2JlLmNvbS9leGlmLzEuMC8iPgogICAgICAgICA8ZXhpZjpQaXhlbFlEaW1lbnNpb24+MjI4PC9leGlmOlBpeGVsWURpbWVuc2lvbj4KICAgICAgICAgPGV4aWY6UGl4ZWxYRGltZW5zaW9uPjI1MjI8L2V4aWY6UGl4ZWxYRGltZW5zaW9uPgogICAgICAgICA8ZXhpZjpVc2VyQ29tbWVudD5TY3JlZW5zaG90PC9leGlmOlVzZXJDb21tZW50PgogICAgICA8L3JkZjpEZXNjcmlwdGlvbj4KICAgPC9yZGY6UkRGPgo8L3g6eG1wbWV0YT4KVg7N9gAAABxpRE9UAAAAAgAAAAAAAAByAAAAKAAAAHIAAAByAAAjBG8GAiUAACLQSURBVHgB7N35rxVlngfgFzBRacWk3aBFTYSbBjpqJ422WwQDGNCOO7hNBBUd+wd7/gTlT5g20+0+9ogLGewGZXEHUVuEdkEM7ciiYqKZKyrqoEFFhrpS1+Lcs917TlWdU/WcBG/VW2/V+77Pt4p7kvPxMGzvvlfwIkCAAAECBAgQIECAAAECBAgQIECAAAECBAgQIECAAAECBAgQIECAAAECBKoKDBO0q+qikQABAgQIECBAgAABAgQIECBAgAABAgQIECBAgAABAgQIECBAgAABAgQI9AkI2rkRCBAgQIAAAQIECBAgQIAAAQIECBAgQIAAAQIECBAgQIAAAQIECBAgQIBAHQFBuzo4DhEgQIAAAQIECBAgQIAAAQIECBAgQIBAuQT27NkTRowYUa5FWy0BAgQIECBAgAABAgQIECDQUEDQriGRDgQIECBAgAABAgQIECBAgAABAgQIECBQFoGXX345nH322WVZrnUSIECAAAECBAgQIECAAAECTQoI2jUJpRsBAgQIECBAgAABAgQIECBAgAABAgQIFFvgm2++CX/962Ph2mv/pdgLtToCBAgQIECAAAECBAgQIEBg0AKCdoMmcwIBAgQIECBAgAABAgQIECBAgAABAgQIFFHgnXfeCc8883S4+uprwlFHHVXEJVoTAQIECBAgQIAAAQIECBAgMEQBQbshwjmNAAECBAgQIECAAAECBAgQIECAAAECBIol8NRTT4V33/2fcMYZZ4bTTjutWIuzGgIECBAgQIAAAQIECBAgQKAlAUG7lvicTIAAAQIECBAgQIAAAQIECBAgQIAAAQJFEbj77rvC7t27w7HHjg5z5swpyrKsgwABAgQIECBAgAABAgQIEGiDgKBdGxBdggABAgQIECBAgAABAgQIECBAgAABAgS6W+DDDz8MS5b8rX8R1103NxxxxBH9+zYIECBAgAABAgQIECBAgACBcgsI2pW7/lZPgAABAgQIECBAgAABAgQIECBAgAABAvsEXnrppfDGG6/3W5x77rnh1FN/3b9vgwABAgQIECBAgAABAgQIECi3gKBduetv9QQIECBAgAABAgQIECBAgAABAgQIECCwT+Chhx4Kn332ab/F8ccfHy655NL+fRsECBAgQIAAAQIECBAgQIBAuQUE7cpdf6snQIAAAQIECBAgQIAAAQIECBAgQIBA6QU+//zzsHDhgwMc5s+/KRx66KED2jUQIECAAAECBAgQIECAAAEC5RMQtCtfza2YAAECBAgQIECAAAECBAgQIECAAAECBBICb775RnjxxRcTLT9uTp8+PUycOGlAuwYCBAgQIECAAAECBAgQIECgfAKCduWruRUTIECAAAECBAgQIECAAAECBAgQIECAQEJg6dIlYfv27YmWHzfHjRsXLrjgwgHtGggQIECAAAECBAgQIECAAIHyCQjala/mVkyAAAECBAgQIECAAAECBAgQIECAAAEC+wW+/fbbcNddd1b1GD58eLjllt+HESNGVD2ukQABAgQIECBAgAABAgQIECiPgKBdeWptpQQIECBAgAABAgQIECBAgAABAgQIECBQIbB58+bw5JMrK1p/2p0164Iwfvz4nxpsESBAgAABAgQIECBAgAABAqUUELQrZdktmgABAgQIECBAgAABAgQIECBAgAABAgQigWeffTb885+bamJMnDgxTJ8+o+ZxBwgQIECAAAECBAgQIECAAIFyCAjalaPOVkmAAAECBAgQIECAAAECBAgQIECAAAECVQTuu+/e8PXXX1c58mPTIYccEm666eaaxx0gQIAAAQIECBAgQIAAAQIEyiEgaFeOOlslAQIECBAgQIAAAQIECBAgQIAAAQIECFQIfPzxR2Hx4sUVrQN3L774knDCCScMPKCFAAECBAgQIECAAAECBAgQKI2AoF1pSm2hBAgQIECAAAECBAgQIECAAAECBAgQIJAUeOWVV8I//rE+2VR1+5RTTg1TpkypekwjAQIECBAgQIAAAQIECBAgUA4BQbty1NkqCRAgQIAAAQIECBAgQIAAAQIECBAgQKBCYNGiR0Nvb29F68DdUaNGhblz5w08oIUAAQIECBAgQIAAAQIECBAojYCgXWlKbaEECBAgQIAAAQIECBAgQIAAAQIECBAgEAt8+eWX4S9/eSDebfhz9uw5YfTo0Q376UCAAAECBAgQIECAAAECBAgUU0DQrph1tSoCBAgQIECAAAECBAgQIECAAAECBAgQqCOwceNbYfXq1XV6HHho8uTJ4cwzzzqw0R4BAgQIECBAgAABAgQIECBQGgFBu9KU2kIJECBAgAABAgQIECBAgAABAgQIECBAIBZYtuyJ8N5778W7DX8eeeRR4ZprrmnYTwcCBAgQIECAAAECBAgQIECgmAKCdsWsq1URIECAAAECBAgQIECAAAECBAgQIECAQA2BPXv2hDvv/HP44YcfavSo3nzttdeGn//8yOoHtRIgQIAAAQIECBAgQIAAAQKFFhC0K3R5LY4AAQIECBAgQIAAAQIECBAgQIAAAQIEKgW2bdsWli9fVtnccP+ss84Kv/nN5Ib9dCBAgAABAgQIECBAgAABAgSKJyBoV7yaWhEBAgQIECBAgAABAgQIECBAgAABAgQI1BFYtWpVePvtjXV6VD80ZsyYcMUVs6sf1EqAAAECBAgQIECAAAECBAgUWkDQrtDltTgCBAgQIECAAAECBAgQIECAAAECBAgQqBR44IH/DF999VVlc1P78+ZdHw4//PCm+upEgAABAgQIECBAgAABAgQIFEdA0K44tbQSAgQIECBAgAABAgQIECBAgAABAgQIEGgg0Nv7v2HRokUNetU+PHXq1HDyyafU7uAIAQIECBAgQIAAAQIECBAgUEgBQbtCltWiCBAgQIAAAQIECBAgQIAAAQIECBAgQKCawLp168Krr66tdqipthNPPDFcdNHFTfXViQABAgQIECBAgAABAgQIECiOgKBdcWppJQQIECBAgAABAgQIECBAgAABAgQIECDQQGDx4v8OH3/8cYNe9Q/ffPO/hoMPPrh+J0cJECBAgAABAgQIECBAgACBQgkI2hWqnBZDgAABAgQIECBAgAABAgQIECBAgAABArUEdu3aFe6//75ah5tunzHj/DBhwoSm++tIgAABAgQIECBAgAABAgQIdL+AoF3319AKCBAgQIAAAQIECBAgQIAAAQIECBAgQKAJgU2bNoXnnnu2iZ71u/T09ISZM2fV7+QoAQIECBAgQIAAAQIECBAgUCgBQbtCldNiCBAgQIAAAQIECBAgQIAAAQIECBAgQKCWwMqVK8KWLVtqHW66/aCDDgq33PL7MGzYsKbP0ZEAAQIECBAgQIAAAQIECBDobgFBu+6un9kTIECAAAECBAgQIECAAAECBAgQIECAQJMCd9755/Ddd9812bt+twsv/F046aST6ndylAABAgQIECBAgAABAgQIECiMgKBdYUppIQQIECBAgAABAgQIECBAgAABAgQIECBQS+CDDz4Ijz++tNbhQbdPmvSrMG3atEGf5wQCBAgQIECAAAECBAgQIECgOwUE7bqzbmZNgAABAgQIECBAgAABAgQIECBAgAABAoMQWLNmTdiw4c1BnFG/68iRI8ONN86v38lRAgQIECBAgAABAgQIECBAoDACgnaFKaWFECBAgAABAgQIECBAgAABAgQIECBAgEAtgQcf/K+wc+fOWoeH1H7ppZeFsWPHDulcJxEgQIAAAQIECBAgQIAAAQLdJSBo1131MlsCBAgQIECAAAECBAgQIECAAAECBAgQaFJgz549obe3N3zxxRfhmWeebvKs5rv19PSEU0/9dd8JY8aMaf5EPQkQIECAAAECBAgQIECAAIGuExC067qSmTABAgQIECBAgAABAgQIECBAgAABAgQINCMQBe3+9Kf/aKZrS32OPfbYMGfOlS1dw8kECBAgQIAAAQIECBAgQIBAZwsI2nV2fcyOAAECBAgQIECAAAECBAgQIECAAAECBIYoIGg3RDinESBAgAABAgQIECBAgAABAgMEBO0GkGggQIAAAQIECBAgQIAAAQIECBAgQIAAgSIICNoVoYrWQIAAAQIECBAgQIAAAQIEOkNA0K4z6mAWBAgQIECAAAECBAgQIECAAAECBAgQINBmAUG7NoO6HAECBAgQIECAAAECBAgQKLGAoF2Ji2/pBAgQIECAAAECBAgQIECAAAECBAgQKLKAoF2Rq2ttBAgQIECAAAECBAgQIEAgWwFBu2y9jUaAAAECBAgQIECAAAECBAgQIECAAAECGQkI2mUEbRgCBAgQIECAAAECBAgQIFACAUG7EhTZEgkQIECAAAECBAgQIECAAAECBAgQIFBGAUG7MlbdmgkQIECAAAECBAgQIECAQDoCgnbpuLoqAQIECBAgQIAAAQIECBAgQIAAAQIECOQsIGiXcwEMT4AAAQIECBAgQIAAAQIECiQgaFegYloKAQIECBAgQIAAAQIECBAgQIAAAQIECPwkIGj3k4UtAgQIECBAgAABAgQIECBAoDUBQbvW/JxNgAABAgQIECBAgAABAgQIECBAgAABAh0qIGjXoYUxLQIECBAgQIAAAQIECBAg0IUCgnZdWDRTJkCAAAECBAgQIECAAAECBAgQIECAAIHGAoJ2jY30IECAAAECBAgQIECAAAECBJoTELRrzkkvAgQIECBAgAABAgQIECBAgAABAgQIEOgyAUG7LiuY6RIgQIAAAQIECBAgQIAAgQ4WELTr4OKYGgECBAgQIECAAAECBAgQIECAAAECBAgMXUDQbuh2ziRAgAABAgQIECBAgAABAgQOFBC0O9DDHgECBAgQIECAAAECBAgQIECAAAECBAgUREDQriCFtAwCBAgQIECAAAECBAgQINABAoJ2HVAEUyBAgAABAgQIECBAgAABAgQIECBAgACB9gsI2rXf1BUJECBAgAABAgQIECBAgEBZBQTtylp56yZAgAABAgQIECBAgAABAgQIECBAgEDBBQTturvAn3zySTj66KO7exFmT4AAAQIECBAgQIAAAQKFERC0K0wpLYQAAQIECBAgQIAAAQIECBAgQIAAAQIEkgKCdkmN7tru7e0N7777bjjnnHO6a+JmS4AAAQIECBAgQIAAAQKFFRC0K2xpLYwAAQIECBAgQIAAAQIECBAgQIAAAQLlFhC06976P//8c2HLli1h/vybwvDhw7t3IWZOgAABAgQIECBAgAABAoURELQrTCkthAABAgQIECBAgAABAgQIECBAgAABAgSSAoJ2SY3O29648a1w8smnDJjYrl27wv3339fXPnXqefv6nDygjwYCBAgQIECAAAECBAgQIJC1gKBd1uLGI0CAAAECBAgQIECAAAECBAgQIECAAIFMBATtMmEe0iDRt9WtW/dquOaaawecv3bt2rB+/bq+9mOOOSZceeVVA/poIECAAAECBAgQIECAAAECWQsI2mUtbjwCBAgQIECAAAECBAgQIECAAAECBAgQyERA0C4T5iENsnTp0rB9+wfhggsuDOPGjTvgGvfee0/45ptv+tsuvviScMIJJ/Tv2yBAgAABAgQIECBAgAABAnkICNrloW5MAgQIECBAgAABAgQIECBAgAABAgQIEEhdQNAudeIhDfDJJ5+ERx99pO/cKEAXBeni18aNG8Pq1avi3b6fPT09YebMWQe02SFAgAABAgQIECBAgAABAlkLCNplLW48AgQIECBAgAABAgQIECBAgAABAgQIEMhEQNAuE+ZBD7J69eqwceNb/efNnj0njB49um//kUceDjt27Og/Fm9cd93ccMQRR8S7fhIgQIAAAQIECBAgQIAAgcwFBO0yJzcgAQIECBAgQIAAAQIECBAgQIAAAQIECGQhIGiXhfLgxvj2229D9E/DRrWJXxMnTgzTp88I27ZtDcuXL4+bD/g5efLkcOaZZx3QZocAAQIECBAgQIAAAQIECGQpIGiXpbaxCBAgQIAAAQIECBAgQIAAAQIECBAgQCAzAUG7zKibHuiNN94IL7304oD+8+bNC88/vyps3/7BgGNRw6GHHhrmz7+p6jGNBAgQIECAAAECBAgQIEAgCwFBuyyUjUGAAAECBAgQIECAAAECBAgQIECAAAECmQsI2mVO3nDAhx5aGD777LMB/SZMmBDeeeedAe3JhmnTpoVJk36VbLJNgAABAgQIECBAgAABAgQyExC0y4zaQAQIECBAgAABAgQIECBAgAABAgQIECCQhcDatWvDpk2b+obatev/Uh9y+PDh+75xbWSIgmAnnnhi6uN16wDbtm3b90/DLqs6/REjhu/752R/qHosbhw9enSYPXtOvOsnAQIECBAgQIAAAQIECBDIVEDQLlNugxEgQIAAAQIECBAgQIAAAQIECBAgQIBA2gJR0G79+nVpDzPg+hdddLGg3QCVnxqWLXsivPfeez81DGHrsssuC8cdN3YIZzqFAAECBAgQIECAAAECBAi0JiBo15qfswkQIECAAAECBAgQIECAAAECBAgQIECgwwQE7TqsIPum8+mnn4aHH36o5Yn98pcTwvnnn9/ydVyAAAECBAgQIECAAAECBAgMVkDQbrBi+hMgQIAAAQIECBAgQIAAAQIECBAgQIBARwsI2nVeedasWRM2bHizLRO7/vobwmGHHdaWa7kIAQIECBAgQIAAAQIECBBoVkDQrlkp/QgQIECAAAECBAgQIECAAAECBAgQIECgKwQE7TqrTN9//3249957wnfffdeWiZ1++unht789oy3XchECBAgQIECAAAECBAgQINCsgKBds1L6ESBAgAABAgQIECBAgAABAgQIECBAgEBXCAjadVaZNmzYENaseaFtk/rZzw4LN9xwQ9uu50IECBAgQIAAAQIECBAgQKAZAUG7ZpT0IUCAAAECBAgQIECAAAECBAgQIECAAIGuERC066xSPfLIw2HHjh1tndSMGeeHCRMmtPWaLkaAAAECBAgQIECAAAECBOoJCNrV03GMAAECBAgQIECAAAECBAgQIECAAAECBLpOQNCuc0r2/vvvhyeeeLztE/rFL44Ll19+eduv64IECBAgQIAAAQIECBAgQKCWgKBdLRntBAgQIECAAAECBAgQIECAAAECBAgQINCVAoJ2nVO2FSuWh61bt6YyoSuumB3GjBmTyrVdlAABAgQIECBAgAABAgQIVAoI2lWK2CdAgAABAgQIECBAgAABAgQIECBAgACBrhYQtOuM8n3++edh4cIHU5vMpEmTwrRp01O7vgsTIECAAAECBAgQIECAAIGkgKBdUsM2AQIECBAgQIAAAQIECBAgQIAAAQIECHS9gKBdZ5Tw5ZdfCq+//nqqk7nxxvlh5MiRqY7h4gQIECBAgAABAgQIECBAIBIQtHMfECBAgAABAgQIECBAgAABAgQIECBAgEChBATt8i/n3r17wz333B12796d6mTOOOPMcNppp6U6hosTIECAAAECBAgQIECAAIFIQNDOfUCAAAECBAgQIECAAAECBAgQIECAAAEChRIQtMu/nG+/vTGsWrUq9YkcfPDB4aqrrg6jRo1KfSwDECBAgAABAgQIECBAgEC5BQTtyl1/qydAgAABAgQIECBAgAABAgQIECBAgEDhBATt8i/pokWPht7e3kwmMnfuPEG7TKQNQoAAAQIECBAgQIAAgXILCNqVu/5WT4AAAQIECBAgQIAAAQIECBAgQIAAgcIJCNrlW9IPP/wwLFnyt8wmIWiXGbWBCBAgQIAAAQIECBAgUGoBQbtSl9/iCRAgQIAAAQIECBAgQIAAAQIECBAgUDwBQbt8a7pw4YNh586dAyaxd+/eAW3taBC0a4eiaxAgQIAAAQIECBAgQIBAIwFBu0ZCjhMgQIAAAQIECBAgQIAAAQIECBAgQIBAVwkI2uVbrhUrVoStW7dkNglBu8yoDUSAAAECBAgQIECAAIFSCwjalbr8Fk+AAAECBAgQIECAAAECBAgQIECAAIHiCQja5VtTQbt8/Y1OgAABAgQIECBAgAABAukICNql4+qqBAgQIECAAAECBAgQIECAAAECBAgQIJCTgKBdTvD7hxW0y9ff6AQIECBAgAABAgQIECCQjoCgXTqurkqAAAECBAgQIECAAAECBAgQIECAAAECOQkI2uUEv39YQbt8/Y1OgAABAgQIECBAgAABAukICNql4+qqBAgQIECAAAECBAgQIECAAAECBAgQIJCTgKBdTvD7hxW0y9ff6AQIECBAgAABAgQIECCQjoCgXTqurkqAAAECBAgQIECAAAECBAgQIECAAAECOQkI2uUEv39YQbt8/Y1OgAABAgQIECBAgAABAukICNql4+qqBAgQIECAAAECBAgQIECAAAECBAgQIJCTgKBdTvD7hxW0y9ff6AQIECBAgAABAgQIECCQjoCgXTqurkqAAAECBAgQIECAAAECBAgQIECAAAECOQn8/e8vh9deey3z0WfOnBXGjh3bP+5BBx3Uv12mjaeffips27YtsyXPnTsvjBo1KrPxDESAAAECBAgQIECAAAEC5RQQtCtn3a2aAAECBAgQIECAAAECBAgQIECAAAEChRV47LHF4aOPPirs+izsQAFBuwM97BEgQIAAAQIECBAgQIBAOgKCdum4uioBAgQIECBAgAABAgQIECBAgAABAgQI5CQgaJcTfE7DCtrlBG9YAgQIECBAgAABAgQIlExA0K5kBbdcAgQIECBAgAABAgQIECBAgAABAgQIFF1g6dIlYfv27UVfpvXtFxC0cysQIECAAAECBAgQIECAQBYCgnZZKBuDAAECBAgQIECAAAECBAgQIECAAAECBDITWLt2bVi/fl1m4xkoXwFBu3z9jU6AAAECBAgQIECAAIGyCAjalaXS1kmAAAECBAgQIECAAAECBAgQIECAAIGSCAjalaTQ+5cpaFeuelstAQIECBAgQIAAAQIE8hIQtMtL3rgECBAgQIAAAQIECBAgQIAAAQIECBAgkIqAoF0qrB17UUG7ji2NiREgQIAAAQIECBAgQKBQAoJ2hSqnxRAgQIAAAQIECBAgQIAAAQIECBAgQICAoF257gFBu3LV22oJECBAgAABAgQIECCQl4CgXV7yxiVAgAABAgQIECBAgAABAgQIECBAgACBVAQE7VJh7diLCtp1bGlMjAABAgQIECBAgAABAoUSELQrVDkthgABAgQIECBAgAABAgQIECBAgAABAgQE7cp1DwjalaveVkuAAAECBAgQIECAAIG8BATt8pI3LgECBAgQIECAAAECBAgQIECAAAECBAikIiBolwprx15U0K5jS2NiBAgQIECAAAECBAgQKJSAoF2hymkxBAgQIECAAAECBAgQIECAAAECBAgQICBoV657QNCuXPW2WgIECBAgQIAAAQIECOQlIGiXl7xxCRAgQIAAAQIECBAgQIAAAQIECBAgQCAVAUG7VFg79qKCdh1bGhMjQIAAAQIECBAgQIBAoQQE7QpVToshQIAAAQIECBAgQIAAAQIECBAgQIAAAUG7ct0DgnblqrfVEiBAgAABAgQIECBAIC8BQbu85I1LgAABAgQIECBAgAABAgQIECBAgAABAqkICNqlwtqxFxW069jSmBgBAgQIECBAgAABAgQKJSBoV6hyWgwBAgQIECBAgAABAgSqC5x33nl9B6ZMmRJuv/326p20EiBAgAABAgQKIiBoV5BCNrmMNIN23kc3WQTdCBAgQIAAAQIECBAgUAIBQbsSFNkSCRAgQIAAAQIECBAovsDq1avD1KlTqy40CtYtWLCg71jUZ9WqVQP6RedHr1rX6DvoPw0FIsfIWqCxIZUOXSAQBQvcy11QKFMk0KJA9KxHv7+i9wdFeh8gaNfijdFlp7cStIvu/1r3fjPvo7uMynQJECBAgAABAgQIECBAoAUBQbsW8JxKgAABAgQIECBAgACBThBIfgBY7UPy5PHbbrstRPvJV/J4tfOTfW3XF0ha7t27t35nRwl0sEDyXvb3QgcXytQItCgQBYzib+sq2rMuaNfizdFlp9cK2tUL0UVLbPT7Lnm82vvoLmMyXQIECBAgQIAAAQIECBBoUUDQrkVApxMgQIAAAQIECBAgQCBvgfibaKJ5VPsAMHm82ofojY7nvb5uGp9lN1XLXOsJCBbU03GMQHEEkkG76Bu9ovcJRXkJ2hWlks2to1rQLv5dFt3b0Xvkat9aN2zYsP4Bqr2PTh73P1H0U9kgQIAAAQIECBAgQIBAaQUE7UpbegsnQIAAAQIECBAgQKAoAslw11A+IGx0frc7RR+yvvDCCzU/YG3n+opu2U4r1xqaQHSPZfHPucbhhGiW1f5eGdrsnUWAQLMCeTzr0dyKFCQStGv2bitGv2pBu+T7slr3dzJIV/n7rshB1GJU3SoIECBAgAABAgQIECCQvYCgXfbmRiRAgAABAgQIECBAgEBbBep9QNhMWKaZPm2dcMYXi32y+KaeeKxoiZ0cVmj0z6hlXCLDNSmQfFbTvr+S93Jl8KDJ6WbSzb2cCbNBMhZIPuvVvom2ndNJjtXJz/pQ1ixoNxS17j2nWtAu+bssWlm1353JPpXPW5Gfj+6ttJkTIECAAAECBAgQIEAgXwFBu3z9jU6AAAECBAgQIECAAIGWBJLftBFdaCgfEBb9Q8TkB6jVPmBtqQAVJye/OaWyFhVdU9+N7o3oT/RtfvEr2k++ihaqSK6tiNtZ3l9ZjtWoVvF9u2DBgr5v84vu6bgtPte9HEv4WQSB5POX9r3dSe8B4uc6+hn/7orb4roOxkPQLlYrx89qQbvksxQpVL4PTN7/0fHK927J44O596JreREgQIAAAQIECBAgQIBAMQUE7YpZV6siQIAAAQIECBAgQKAkAskPAKMlV36AmPyAsfJYTJS8RhE/REwG7So/QI0N2vUzOVYt73aNlbxOHESIgkjRK95P9qm1XcSa11prt7cnn+e065blWMm6JO/d6H5O7if7VdvO4lsrq42rjUC7BZLPX9r3dV7vAZLP9lB+dzXzO7ZR0G7z5i19pevpGV+3hH/4w7+FqM/48ePDrFmz6vZ1MD+BakG75P0dzazyvml0PK/3dfkpGpkAAQIECBAgQIAAAQIEGgkI2jUScpwAAQIECBAgQIAAAQIdLJD8gLDah/HNfECY/EA/7fBOHpRJg6yCdtVq0c61RwGF6E+1b/aqN040r+i8ylflB8+Vx+13hkCWz2ry75Y074/ofoz+DPZerlWRtJ/xWuN2Snvy+Y63o+c++uPVPQLJZz2qXXRfp/VKPutpPj/x/TjYAG2tdTcz13pBuyhkd8cdd/RdftasmXUDdFHQLnpFYbtbb721b9t/Ok9gKEG75LNW+R44umej4/Erzd+F8Rh+EiBAgAABAgQIECBAgEDnCwjadX6NzJAAAQIECBAgQIAAAQI1BZIhssoPCJMfnlceS16w3oeMyX7t3m52fq2OmzRq5oP5VsaLx2p3MCIZUIjmF+/Xmms0/pQpU/oOR9vRn+QraR+1p+2SHLvV7WjtlesZ6jWja8Ufotd7RupdP7KM/4nDyDHNV5bPanKsdoYL4nu3mW+wius8mHt5qHVMs26DvXZ0TyVflfvxseS9F7vGx2r97Cafdj/rccArMojurfj+qmVV2R7NJ75GO5+JynGi/ai28TOSds2Sz3q7fxckzaqtM9kW1aPes155rWZcmg3aNQrQxUG7aL5//OO/J6ed+3b8rXzRRLZs2dw3ny1bfvymvugb+OLX+PE9fUHBeD+Pn9FcG317YKN5rVy5Mqxc+WTVbxgcStAuft8WjVt5T2X5HDZat+MECBAgQIAAAQIECBAg0DkC/w8AAP//2/M1LwAANntJREFU7d3fkSbJVTfgWQdkxejuwwCugDvtFRZ8CAdAJgAOEIHwAQ+I3TvgjpAi5IDGCSwAnV7O6reHrD9vd9f0TPWTETNVb1Xmycwns3pWUUdvf/PffygfFAIECBAgQIAAAQIECBD46gT+/u///sM//MM//Djuf/u3f/vw53/+5z9+/ou/+IsP//7v//70+e/+7u8+VP1VOVtv9lexZp+r+FvXZryXxNrqo65/8803P96++n8Ct2WtQ81nr/Ta1PE//uM/Nqt2vc0Kf7hR/f3Zn/3Z07HOj8q0v9rlaDxn75dFGWfZ29tZb3U+HR7Zg7Ntxb/aMffyS+a9spjXcn5H8+o92set/dz3Z1/5+dG9XG3T5Wis2dfnOC/HLnne11bHtK/7udZl2D/3z3iu4s+YW3Xe+nqu60vHPE1rnx39jO75z7Z1/ZGfFR3nkWP2mev/SIyzdWsf9c/Vo3n1nuvjS5/1GmPN78y/W1U398QZl//8z//88Nvf/qaaLsvf/u2vnq7//OcfP/zN3/zNsk5d7Hp1XvWq/pny+99/eqr26dPvP3z69MP5qt3Hj3+M9/Hjzzfjd7zvv//uKUx/XsVcXfv22198+Pbbb1e3Lrv23Xffffjuu+9/jF92v/jFt5tz/LHixsk///M/f8h553r88pd//eFnP/vZT1r2f5fVxbln8jmr+/Pfj9xvR89GtVcIECBAgAABAgQIECBA4H0IfPOH/wEp0e59rLVZEiBAgAABAgQIECBwM4FHXhDu/U+/vZeQSTb7q3uPJCtkrDrPF5j1+SWxqv2qzDHvOazaP3qtLffmMsf0aB8Vu5Mcqu18cXwmXto/p/2ZPq6os7Lbsz4aQzpU3TOxyr4SnXINup+r91eO9+qX/mm9Na89izbZO77GXs5xnlm/vfG89r3y6QSmin12zWa7altr0D9f6vNRKYssq/36JT/7ua45j629mHVW56t4R7H29vfZtVyN5cy1fNavXqe02TLZszgzn/msP+dZzXFWn1tjzfHsJdpVslYlbVV5JNHuTLLaTC7LMR2dZ/yO04l9mWB2FGfrfsbfqvOa1zNJseMeeXe9ecw163tHiXZ7z9LRnsq2Z/Zbj8mRAAECBAgQIECAAAECBO4tINHu3utrdgQIECBAgAABAgQI3FhgJl3kS8BM1Dh6oZ1x9l7oZ71kzX7z+t75fLlZdY/GuRdv697s5zlj3Yq9ut4vZVeONZb69p9am0dL2VTMOubaVpxHEz5yHVfjfHRsR/V7vjX2l5a5nh3vUYNqtxVrb49stal4V1u+dN1rjI+UnmutW/nOkvto3tv7XPF6L1e9fmbq/FHDHmO1rbK3dj/UOPd3Wb/Gfp1rtmU5RzXbtVeZ75Wj52B6VayjNnv9zXs17iqvYbcaa8V+zninZ8WpsrdfttpUu0f3abV5tORz8Zw5P9JfWq9MXvqs11hqT2ScRw1zjBXvrMnZRLuK+etf/1MdliWTxfYS1ToxbhkkLlaiWX6LXd/qb7OrhLL61rpHE+s6Ia/jrdrvjT/bzVh979Fj2nXb5ybarXxzPqtvtMtnae67vFd7tPZVl9xz817XcSRAgAABAgQIECBAgACB9ykg0e59rrtZEyBAgAABAgQIECBwA4F8QVjTyRfP+YJwvlicU884GWOvXt7ba5P18jz77OtXvMh8xKHH8ZJjzyvNK2Fj6xvQas5Vqn6fd4JHfc7rTxX/8Fff78+P+GeiQ8WvtleW9F8lcGTfNbb69bdVqt2q5Pjz/iMG3W4r1tY4cy4do45t2OuX917zfPa/Nc7X6jN9sq+6XqX24SyrPdtx8pnIdv3M1LWtOlm/z6fHc/ZAx8pjj+doLDX/eq73fmXzfFbPPnOzXfnntYpT/Wbi7tnYNde0e6RdOs3zjJn7Zdarz72Hag7VblUyXt4/Wpes2+e9B/tzH7f2zFbfn+tZz7WusR559nyee8z5Zl+9TjWeWWrf1FrUsUs7b+2pvl/1H1nHHF+13Vq3ujfLayXa5a8rXSWJVQJY/WrYVWJbJ6yd+XWpZxPsMmbNuT/P+dfnmZyWiWmr+p0Yd1Svx1oJg50guBdv3ttLbJx163P1199AmPdzPWai3XyW5t7pn/cdL+/nvntkv3YsRwIECBAgQIAAAQIECBC4r4BEu/uurZkRIECAAAECBAgQIHBzgfmCsKbbL8kfeUGYcfIlY/LNl5V5b6tN1snzHFte33o5n3UePc+5fY4Xpd1f9rWab92v+dafVSnvvXudAFFtz/jXGDIpJ8e36v+1rrVHzaXGuVXSaK9ux5txHp1P9jdj9TOU11f1H+0z4z3nPMewZ/Sc2Ks2nRSTfa1+DtT93s+rOHVtbz/nmp4xrViZuHqm/61xra73eI7G0vUqxlbdXLPua7W/+l4eV/51Py27Tl3PdarPRyXbnvkZchQv57o3x6y3N+b0zb63rLNOnmd/eb3OV/Mu37LJUn3WWOvP5yhzzHuerzGe7K/7WjnU/Ntiq9/cn7NO7rkz61ixXvqsn020y2StOe763Mlndb6qO5PZqk4l1nX9p5ODvzKZb1W1Y9bxkTLHtpfglnWPEu3SJH99a44t4+X1Ot8bx6xbn7di5XrMRLvc2xWj93edV1n9nOk62Xb1s+KHCP4mQIAAAQIECBAgQIAAgfcoINHuPa66ORMgQIAAAQIECBAgcAuBfGldE6qX4J3MlC/J8/pq4vmisV8wznr5wnHee+QFZI5rxjka56x/9Hn2tTW3Gadf7tf1o6SC2bYtM4kg7V5jjo/Mq+dSxy45tr52xTHnvddn1qtxbBnNeeeY9+JnvT7vderPeZz7ZNXvo/1l/Oee55gf6b98K8ly79vDVmPq/nI9psUjz/6qj7rW/dT5Ubz5M+8Rh4p/VHIv7o0l61XMNMo+Zr26txc32+Zc557sehl/awxddx5zLR9tuxdrb02yz46xNbfcF123jo+ONR2rbY2hy1yL1fj25tNxXvuYY36k/xp/f8ti7Y2zJfvr9ZgWj4xjq9/s5yhe7u2K9+i69xj2Eu1m4tZW4tfqm9RmElrGysSvHseZYyauVf2KU3132Upm6/tbx4w7xz3b5Dy2PKpN1qvPW3Fnvarb5ZH5zDhpk957iXarPZd7ssaVdfIZeO7+67k6EiBAgAABAgQIECBAgMC9BCTa3Ws9zYYAAQIECBAgQIAAgXcmkC/T60Vg/emSiQr98rzv9TFfJNa1rXrzpXe3r2P1WQkLZ0rGqRea+S1rj8Q501fO7ZHYc4xpvNdv9pcJHBnvkXFs9ZX9VJ2tNZv1qu8yr+PnKDnvrTHWOLJej2tVf9aredQcq9T5c/ZgtS2TSk7pMvvO56jqzPvd7upjjuPsGNLsEaOaS/e3lXhQdc6Oo+pule6n7udzk/VrnV/6zVYZb+s8ky725pauFWvLdtarultzrHtZzowl42+NIWPO87bPNZ51znzOcezFmj+TKvbKY1Uvx7G3Nlkvx1XX57M++07zqj/v17XPUXIcZ8cw53rWqObT+2Duob5edc6Oo+pulYy3tU/ms16xXtL32US7ThTrxLZPn36/+atge36Z4JWJYHm96545doxq39+Gl78qdS/xbSv+/Ja8nudW/U7KO5rDjLtVP+tVnfat/o/GkmPscXW77777/sfb2fdMtMtnabXnar/Vny71DNSfKnW92ldZtX264S8CBAgQIECAAAECBAgQeJcCEu3e5bKbNAECBAgQIECAAAEC70GgX7zvvSDsOuVRLxfrhfaqzBfkmSBX9c+81M++us3RS9DVWM5ey/72DGa8OdeKc6Zkf5kYkNf3jLuPfunbL3v7eh8zXl3Lvupztc+kpFWdunZ1Sce9/THnU+Oac6prc6+8xh6sftqr+pjrk33W/Uf2UdV/rVJj7Bf+FXPPM/vM8T8y9uwv2+X1M+Oo+vWnXOvPLDPeat3n/sjxzHgv+Zz9HPWRe7v7XK1Jxux65VDzPCrZduVS7bPO0Zhnf2n/aNsZKz1WDl0/x9vXVnPLeuVV38aYybCrNh2vjzm/ulZzrJJxcqzZZ9V7qUnFeG4565nxc/xn91i37/5mu75e9Y7My7v+VIz6syoZb+Wbc6j2qzqruHvX9hLtMglsL8bevU5+6yS5qpuJX1ttO+Gs6m6VqlNj7NJ99eejYyanVd2jxLacw1HdGXs15zn++ga7nM+qzWpOOa5uk/3nWDPRbu6noz286rv/DX2NvbiK7xoBAgQIECBAgAABAgQIfJ0CEu2+znUzagIECBAgQIAAAQIECJwS6BffW5XzReTei8T5gnwmOR29wMx+aizd14xb9V6rZJ/d31Hs8sqEpkoYqLmdKdlfeuT1ilNj6VKOVarfWbb6znizTt6reHW/+qvj5yw5jiP73AM9xvTra1mv5vNo8s1c2x5Xv0ivfvpanecc5r36/DlLjiXHeDSGaXZ2L6dV9pfXq++6V2tR13sv1/X6PEsmNfW9qpfPW9ape58zYTSNV/uvx5z1+lodc+x9PfdWX6vjXvyul/1s1c/4W3U63jyeiT/brD5nnNwrq7q5H/v+atw5r9pfFTf3SV2rdnsl++px5VhnjFX9vfhX3ctnosd9pq80q/qr/bgVp+c+++vr1a7ulVmNr0o/7/356eL//rVa07qV8bJOxZjP+hxLxn/kfCvR7mySXSbCdXJc9V9JY1X6/kwG+/jxjwl0nz798Otfs/1T4/9t37H6Wh8zUa0TzPre0XHOL5PRttpm8tpeUl/OtWOtxpfjr3oz0a6vtWHHyuPsq+eRY624HWMv0e6RZyLHUPuz9r5CgAABAgQIECBAgAABAgRaQKJdSzgSIECAAAECBAgQIEDgHQrky/mtF9v1kjGTHPqFe16rl5BbiQ+r9pXwUGXrxfvTzRf+9ZzYmYhR3e/Naw4v2+YL3bw+2+x93lqPGa/c+1uayjpLJjPk9avPc1+lxex3zqXvr8ad69k22c/eWs09mHVXcWscc2x78+hxX3XMsfTcz/SVc6v6Z+eQ/eVa5PUz/XedrTHPdal6VWYib13bilH3XqO0Ve6NVdwtg5Vtx5xx0nTe689ps1U/9/9WnY6XxzmH1diz/t55xtobQ9bLeKs26dbrnnOt9qt2HXfW7fnl9Y5bbebY9mJ3H1cdcyw5xqP+0qzqnp3DVn95/ajveb+95/UcY82tyupZP3oGZ9y9z5loV4lf33//3VP1VdJbx6mkrfrVrZ28Vdcz4auuz+S4TPzqOGeOnTi2qnvU56rNTG6rOnt9dIxsd1R/NdeVSY6/+qnkveynrq3a1fUqs32Pa8bIpMBMtJv7rfa0QoAAAQIECBAgQIAAAQIEXkNAot1rKIpBgAABAgQIECBAgACBr1RgK/EgpzNfuPdL9Gxb9WdSQCWK7H1LzVbc7Pu558+NPdtV/z3fo7HkS91us4q3F6cSDDoBoc5X5dGYFSNjbsVd9fXcayuLVaysl/dnkkgmHVW9vv+cPTiTOHIMHbf6mM5zf1edz1W2xrjX/xx/1c357bVN12yT49hrX/fKOffdqv5c11Wdea3i1rcZVqk5vkZJq711znqz337m8/qW19yD2abP02arfq7Tqv+ONY85rr35znarzxlrbwxZL+PM/nPeVa/vz+srk7k+Vafa17FKjqHj1vUZO+/V/c9Ztsa4N4Y576qbz+3ZtjnvHMde+7pXvvVMtnMfZ7tHYmbcOq85PqdUot2//Mu/PCXYVYLWVqmEr5lcl3Uz6Wsmh+W9bLN13n3V/TrfKhl39rlqk/X7fien9eetY7bda5P1ZqxMeKt7s27fn4l6+Y101a7WqRIic71yTFtxq20n2n1Jz3SNSyFAgAABAgQIECBAgACBewlItLvXepoNAQIECBAgQIAAAQIEHhLIF99bL+brBXd/Y1oF72SK+SKz7nVSw0ywq3v18r366LIVt++/5JixM3ngKGZ6dN2eb3/eOnbbnOfKKNtX3U5QqPMzJed2pv6s84jHbHvmc845LWbbvXnMMWbMitN7dV6ve6+1B7diVx819s9V5jge3Y85znbLa6vz3st1L/vL67Nd79/2n/dXn/f2wKr+vFZ9VXnpeuQ45t7LPrNeXq/zdKrPe3Xr/pm1aO+t56jvV7zZf11blUzO25vrqu3q2pkx7FmsxpAx22k+BzWWcqmfn1vfilaxq06V2b7jru7VtWpbpcZebTvO08UL/8q5n13Tle/KdTXs3A9pkuOY7dqijfrzrDc/78WcdVefz84p21ai3Z/+6Z/mpafzSlzLRK6Z7DUbZHLXTHqrOPWrWrdK1a9fJfvx4893E+tm+70+s+4qMa3uH80pY2RfmdSWdep8Jsnl/U6k62sZM83yetetPstnJtjV/Wxbn7P9vNeJdvOZOPssVXyFAAECBAgQIECAAAECBAgcCUi0OxJynwABAgQIECBAgAABAjcVmIkHWy8i915Y5kv6PabVC/KMWy/q6yX/a5WMvep71c/06DpbLn2/jtl2ziWTC2osdb/+PLecNT+Kf9blKM68f8Y+61T78ijDLpnwUddm/bw/73WMeVzNd7ada33Gusbe37DWY519v+RzjnE1h63Yue+6Trr1tdUx26ZJXq95v/SZzbmtxnH22iMuq5g5jq1Ys04mH1fMdKrPWb/3SLY549feW3X7/qr/ujZL1q97c8yz/tHnvZ973Tbr1LWay96zPuvnesx73cc8Zpu+N9vOuZ991iteP++1xq9Zcs9U3DnGrb5WY18ZrNrnnsifDxlza/+t4m1dm/5b9Y6uPzqWSrT7q7/6/09JdZ3w9u233z59zuS4mSQ2x7GX3DUT7frXylZ/LynZ5yPJb9Xv3rfzrcZUFp14uJWgN8fz3Xff/yTUNMyYVTHvz3s/CRQfVmPJttOlE+1yX599FqJbpwQIECBAgAABAgQIECBAYFdAot0uj5sECBAgQIAAAQIECBC4r8DZl/pZb77kPnp5XvXrJWcdZ3ntF/kdf47pbLJCzrNj1fFM+2ybL3WfO5bsf55Pt+qvSzlXn33s63Utk3zqetV5aaJUx89jWqz6yPvVrsef48uEj6qTbVYx86V61c9S9bf2YMatNqu1nnUy9tZ57oGtOmev59weiZvtuq/p2tfzmHt2WmfMM7Ey7up82uZ+rL6z1LiqrPZyXV+tXV0/U/KZWhnPcVZf2ab6mB5p1TGP2syxZozV/I7ud7w2a8PVeLvuI8d0mXul4uT9+lwOVa8cusx2Nca8P+c9DTtOHStW95HX63yOZcZd1ZkxVp97bVf3Hr2Wc3skbu6D7nPux74+j9k2TZ47lhm/P891PfusV/v8t6E+n51b1a1Eu9/+9jc/JtrVtSozOS6TwH6o8dO/M8ms7mT9vXs/jfLYp4w7E8o6Uiad1bX5DW9d7+iY31R3lNxWsWr+s+80qTp5f45/+lf9LHvJgjnWGVeiXSo6J0CAAAECBAgQIECAAIGrBCTaXSUrLgECBAgQIECAAAECBL5wgTOJBzWFMy/cZ6y9hIdmyRf8M9mi6zznmGN5JG6Op/s92z77zASJvF4xM5Gh+5jHToapvlflzHqs2s2x5DhX9Z97Lcc3/bbGMJMw9trNez3OGbvq1RzruFVyrFVnb30qfpWZ9PF0cfHX1jgXVXcv5b7cG18GmRZ970z7bJt7ZK7R2WSXare1BhnzEa8cY80tx9lzfeSY+2COI/uqe72n8vocQ86r7rX7vD77mmPOcXWMrHN2b2S9an927bKv1fmcT45xy2e2mQazXcbsMcw6uS5dZx5nmz2Dqltl9Stpn24s/tqLt6i+vJTrdDbenFcHPtM+12KuQ47l7PNV8SrOqmRfdX+1rmfaPdK26nai3Yw9E71mktgj9TMhrtodxao6/e1xe996l3FXCXR5v2LOpLO6drZk8tpMtMuEuUyAy+vVz+w/Y857Vb/G/+nTpx8t6lrGr8+rshe3Eu1+97vf7SbrrmK6RoAAAQIECBAgQIAAAQIEHhGQaPeIlroECBAgQIAAAQIECBC4kUC+oN97kZ7JHnv1HqXJuPMl/6Oxsn7O62zcbJOx6vxMQkAmJWSCQ8Y9M5ZMRsg4OabnxKzksIrd5TXXsWP2MedQ16qvmvvRGNKwY/U4c859reu85Jh7sOKcWeuql5Z1vpV899KxTsuz41tZ1ri39lTd67JlPcdyJlb7bjlkzLPPx9E+6nk8cuxxdpsa72rP5pxz7N2u2vSvFc09keu26qvMVyXXMWN03byfY+v7uZZ9bVWv7z16nAa9zkdznPer326bYz6zJ86Oefa58lzFqjl2qfOt5LuXjnVanl2n3AM9zjqeaZ/W7d8xMu4jsbYc5vyO/Kv+6lmv+PXnbLkq0S6T0TLhbZUQN8eaSX4ZZ9Y7ijsT3fZizdg1hk+ffv/h48efPx3nr4GteXQyYLbNJMKcR9fJRLlMiHtkbB1r65hxp3cl2v3jP/7jT/5NPtprW/24ToAAAQIECBAgQIAAAQIEtgQk2m3JuE6AAAECBAgQIECAAIGbC2TiwXzJnlPPF+579bLNmfPsv+q/1svQveSBrXFlm6yzlTSQdfYSCGbcozlm/S3rrLM3vlWiQo17K27O6SXn02MVazWGnFe2KbPcK6u2Wf+R89nnmYSSvfgzXtU9WvOz8fbWOmOsxtD3z8wvn/esP9c173X8PGb9rTXLOtV2K2bVm0k3Vf+sSdXdK3Mcq7qrseW+7DY110zGmnNf9TXrVKxZb7WPZv8dp9pOr9ey6nn2MfdLX8tjjymvbe3R+ay/5pin52o9c4xH5yvj1Rodxen7c3xnYm05Vswz88v9M9cp13Xe6zH3Mce+t2YZc2t8K9fqZy9uj2N13Eq0q7qZsHUmEWyrfibEVdxMRqvPs2SC3Oqb3rr+UdwcT7XpJLduX8dKpvvh+OnpuEqee7px8FfHrmOWnEtfrzlVAl/d63LGt+seHbPPVaLdX/7lX36ofVTlufvmqbG/CBAgQIAAAQIECBAgQIDAhoBEuw0YlwkQIECAAAECBAgQIHB3gXzpvfciPettvRx/jlW+nJ/tX9JPJg+cjTPnWDG6HCU8ZLLDfKmb9yreUawcx1bd6TbXbt7vedTYqm4ds/QY63p9G1d9fmnJNZix9tYk2+V48/qc74z/yOctq4pR/ddYHy3t2e221rHv7x0z1tl55x6q8ede3rOvcWR/9TnHPq2OYuWaZZyK22XGXJlnnG5Xx6P+s+7R+RxH1s99mNfrfLbr8ecarNZttqtYs17W6bhVL0vWyevzfMae91/yeWt9KuZev3Ov9XpmvK15P2e8R1Zbe/Sor1zr58aoPtJjzy3HM9tkgmd7Zv15vjf2vHc0njmO+rwqubZ1f44x42T7o/6z7jzfS7TbS9iacerzVv2jhLiM9Ujd+Y1xM1ktx5N9vPb5TGbL+HOMXXden2PPGI+e7837X//1Xz/85je/+ck32r1k/zw6NvUJECBAgAABAgQIECBA4H0ISLR7H+tslgQIECBAgAABAgQIEPg/Avkifb7wzsr5cvw1Ex+qjxxD9rk3nqy3Os+YZxIfcn71QrbmWNe6HI0l+5svdGfiwFasSgLJb6CacXosfcwx17WMm+OpezWfnld9nmXGOmM2Y8zPq6SWo3FkjGpf9bvkGOt6zfe1SsbOmGma14/Oc81fOtYc29GeqHFl310/98PReLL9qm7G2vPJOD2OLbesW3Uy7rxXY9rby1t9nLk++6o2K4NVrNqvVap+lXTamv+qv6yb9/P6UwfxV9aLyz+e7rX9sdILTlbPeoU72+981nM+Z/3PDj+fp2xzdqzZps5zrPX5JT87M9aZ8WT97jvnd2S3al9xuuQe3ouVcY7GPfdKxs04NYa6V/Hq+JJyNtGu+9hLCMskuU4oq3Z5vT5vxajks++//+7HX8m69212FadKJpVlnz/c/en9vnZ0rDhVfvGLb5+O/XnOo26u+nxqNP6qtvUtdh2rbuc37m2ZjDCnPs4kvmz0X//1Xx9+97vf/eS/4er+S57NjO+cAAECBAgQIECAAAECBAiUgEQ7+4AAAQIECBAgQIAAAQLvVCBfymdyy+TIenXv6GX6bL/3OV+u90v1l7xYz3jV79HL1a36z0kyWPW3l1jQLmfqdN0+Vpv6U8l55ZXfRFdzqm82qtKm3W51nOu7txdW7beu9RhrLGfGsRWnrs8xvuYebMc6luVzxpoxch4vtcx9eCZW1m+jabf1TMxnodvnfDJ+WdWYZjnbX7brvitmlY77mnvoKfDBXzWOKi/ZszXmMuiyt249767bx7KvZ7vLai36Xh1XcZ67lzPuI+c1hnLLn0WPtO+60+9o7t3uzLH3U//crNi95860rzoVI5Oiu91Lx5nP1plYq/pzH2ztvTPGZ57jWefMuHuM7X71s76XaFdrl4ls9XkvIWwmeHXdeX2VQHemTvU/y5nxVZJblU+fPv2YxFcJbx8/fny6NhPqZh/5OWNVu0ycy3pnzjPRruqvXM7EWdXppMAaX87vl7/86/+TaLf1HKziukaAAAECBAgQIECAAAECBM4ISLQ7o6QOAQIECBAgQIAAAQIEbiiQL8nrpXe/8J5T7RfjfX2vbtd5q+Mc61ZSUY1v1s0kgTM2e+1z/pkQUde7n5ns0G0+90vhOY89sx7j5z5Oq7fag51kU8lEncxY11al13l17+y13DtH+yL3bPad16vfVZzpm+1zrDNW12uXadH3M8bdz6flyjsN5vOX9+r87F6vOF2qTf35Gsv0qzkcGV41z9rvWeb+7nuvsc9f41mfe2nLLfvaGvuMVfup6la5ItGwLV/7eJRoVwlwnz79/ikhrRLTvv32h295W40jk+Vm0thWUlknhM14v/71P81Ly8/ZZ1WoxLJK8PsaykwSnGZXzKES7X72s589ha7n9Wv9OXiFjZgECBAgQIAAAQIECBAg8HoCEu1ez1IkAgQIECBAgAABAgQIfFUCM2mmXspXmS8mZ+LDl5iI1fAzOWBrrHNOM9lg2sz7R+17PHWcY8p783z2M+9f8XmObys544q+z8ac3m81xjmO1fhfaw1nX1t7ucaQ+3X2P+PU893Peo8/29e1rb5mrG6/Os5xrOrc8do0OuMwn8F0eau9nmP43OdnEsGuHtNcx1V/9SzV+s5/M1d1j67lnPfWfO9ZXY15Psuz/VZfq1hbczizx7faXn39KNHu0f4roW6VMDaTyvbi9jfh7dXJe5mst+o7635J55kk+LkSBDPR7kuyMBYCBAgQIECAAAECBAgQuJeARLt7rafZECBAgAABAgQIECBA4LTA3ov0+XK+glb910goOD3AZ1TMhJUa60wo6pCZbLBKEljZdL3Vva1khVV/fS2PNdbXStjIuGfOM8Fjz+xMrKvrvPUeXK19zbncXvorM6fd7Gtrj53Z87nfq5/ey3W+d6/uz5L9zXv9OeP3tfd0zGeq5r21dtMkbd+74Vs/67U289moa/WsV3nNn9fPfdZXY5hjrvH2v4Pz3tEey/34NOnFX0cxFk0+66XXTrTbG/xRst1Lks0q2a5+NexLf53r3vjvcE+i3R1W0RwIECBAgAABAgQIECDw5QtItPvy18gICRAgQIAAAQIECBAgcJnAfPFeHX3pL873MGZiwEwYnAkNe3Nd2az63ouR9efY6l4lQVT7Or5FmWM6O5e3GOuX1Ge59Zr18bXHN/fqKllr7tG533tMM1Zfn8ez61/zr1+dW3GzrMaY99/L+VyX2iOd7HTGoFyv2ldn+lfnjwKf41mv3jI5c/UczZ/VL33Wz+7J6rdK/brYLGd/VmSbtzj/nIl2Nb/89rmebyXYSZBrjWuPEu2u9RWdAAECBAgQIECAAAECBH4QkGhnJxAgQIAAAQIECBAgQOCdC/SL9EqcqfJIQsiXRjcTijJhYd47SjSY9VdzfU6yQcXt8tbJNGeTN3q8jp9XYC/5ZiZz5V5fjXLWn3Wes5dr//Qe7uOM+x4/58+Ocnntbzt8j6Z3n3M+67Vn8t/h+XP66Fmd9afdjD/vrz73s157u86/lvK5E+3apX5tapdKtFM+j4BEu8/jrBcCBAgQIECAAAECBAi8dwGJdu99B5g/AQIECBAgQIAAAQIEbiSQCS41rUooqKSEuj6/kWfrG4GSY8bLe0fJDln3SzyvZIk0+drn8yUav3RMM/lmay+fXbutZLuz7V86n/fUvp6v+vlTfxQCRwLz2axEu9W/W2ef1fnzvfuv/ZhJfH39rse3SrS7q+eXPi+Jdl/6ChkfAQIECBAgQIAAAQIE7iEg0e4e62gWBAgQIECAAAECBAgQIPC/AjNhYQVz9O1f2aaTHerY5WyyQ9f/0o6rJIwziYdf2jzuPp7VOs05P7oXZ8xH28/+fSZA4OUC9e9L/du1Vx59VutZz1/x/N6S7MpSot3ejrrfPYl291tTMyJAgAABAgQIECBAgMCXKCDR7ktcFWMiQIAAAQIECBAgQIAAgWcL7CUsvMdEgxXkTEZ8NIFjFdO1awTyW+2yh9rLtW51VAgQ+PoF5s/lnNEjyeHZ7r2fS7R7XztgJtrVv5/+++Z97QGzJUCAAAECBAgQIECAwOcQkGj3OZT1QYAAAQIECBAgQIAAAQKfVWB+a1d1LlHhj0uQCR1eQv/R5Us8u+M3Kn6JzsZE4K0FVs+65PCXrYpEu5f5fW2tM9HOf+d8batnvAQIECBAgAABAgQIEPh6BCTafT1rZaQECBAgQIAAAQIECBAg8AyBSl7wrV8/hetEREl2P3X50j/Zy1/6ChkfgdcR8Ky/jqNEu9dx/FqidKJdPT+VaJfF/9kiNZwTIECAAAECBAgQIECAwEsEJNq9RE9bAgQIECBAgAABAgQIECBAgAABAgQIEPjiBCTafXFLcumAOtGuOulvtKv/o4Vfs34pu+AECBAgQIAAAQIECBB4dwIS7d7dkpswAQIECBAgQIAAAQIECBAgQIAAAQIE7i0g0e7e6ztnl4l2dc83Q04hnwkQIECAAAECBAgQIEDgNQQk2r2GohgECBAgQIAAAQIECBAgQIAAAQIECBAg8MUISLT7YpbiswxkJtp9lk51QoAAAQIECBAgQIAAAQLvTkCi3btbchMmQIAAAQIECBAgQIAAAQIECBAgQIDAvQUk2t17fefsJNpNEZ8JECBAgAABAgQIECBA4AoBiXZXqIpJgAABAgQIECBAgAABAgQIECBAgAABAm8mINHuzejfpGOJdm/CrlMCBAgQIECAAAECBAi8OwGJdu9uyU2YAAECBAgQIECAAAECBAgQIECAAAEC9xaQaHfv9Z2zk2g3RXwmQIAAAQIECBAgQIAAgSsEJNpdoSomAQIECBAgQIAAAQIECBAgQIAAAQIECLyZgES7N6N/k44l2r0Ju04JECBAgAABAgQIECDw7gQk2r27JTdhAgQIECBAgAABAgQIECBAgAABAgQI3FtAot2913fOTqLdFPGZAAECBAgQIECAAAECBK4QkGh3haqYBAgQIECAAAECBAgQIECAAAECBAgQIPBmAhLt3oz+TTqWaPcm7DolQIAAAQIECBAgQIDAuxOQaPfultyECRAgQIAAAQIECBAgQIAAAQIECBAgcG8BiXb3Xt85O4l2U8RnAgQIECBAgAABAgQIELhCQKLdFapiEiBAgAABAgQIECBAgAABAgQIECBAgMCbCUi0ezP6N+lYot2bsOuUAAECBAgQIECAAAEC705Aot27W3ITJkCAAAECBAgQIECAAAECBAgQIECAwL0FJNrde33n7CTaTRGfCRAgQIAAAQIECBAgQOAKAYl2V6iKSYAAAQIECBAgQIAAAQIECBAgQIAAAQJvJiDR7s3o36RjiXZvwq5TAgQIECBAgAABAgQIvDsBiXbvbslNmAABAgQIECBAgAABAgQIECBAgAABAvcWkGh37/Wds5NoN0V8JkCAAAECBAgQIECAAIErBCTaXaEqJgECBAgQIECAAAECBAgQIECAAAECBAi8mYBEuzejf5OOJdq9CbtOCRAgQIAAAQIECBAg8O4EJNq9uyU3YQIECBAgQIAAAQIECBAgQIAAAQIECNxbQKLdvdd3zk6i3RTxmQABAgQIECBAgAABAgSuEJBod4WqmAQIECBAgAABAgQIECBAgAABAgQIECDwZgIS7d6M/k06lmj3Juw6JUCAAAECBAgQIECAwLsTkGj37pbchAkQIECAAAECBAgQIECAAAECBAgQIHBvAYl2917fOTuJdlPEZwIECBAgQIAAAQIECBC4QuCbP/mT//ffVwQWkwABAgQIECBAgAABAgQIECBAgAABAgQIECBAgAABAgQIECBAgAABAgQI3EFAot0dVtEcCBAgQIAAAQIECBAgQIAAAQIECBAgQIAAAQIECBAgQIAAAQIECBAgQOAyAYl2l9EKTIAAAQIECBAgQIAAAQIECBAgQIAAAQIECBAgQIAAAQIECBAgQIAAAQJ3EJBod4dVNAcCBAgQIECAAAECBAgQIECAAAECBAgQIECAAAECBAgQIECAAAECBAgQuExAot1ltAITIECAAAECBAgQIECAAAECBAgQIECAAAECBAgQIECAAAECBAgQIECAwB0EJNrdYRXNgQABAgQIECBAgAABAgQIECBAgAABAgQIECBAgAABAgQIECBAgAABAgQuE5BodxmtwAQIECBAgAABAgQIECBAgAABAgQIECBAgAABAgQIECBAgAABAgQIECBwBwGJdndYRXMgQIAAAQIECBAgQIAAAQIECBAgQIAAAQIECBAgQIAAAQIECBAgQIAAgcsEJNpdRiswAQIECBAgQIAAAQIECBAgQIAAAQIECBAgQIAAAQIECBAgQIAAAQIECNxBQKLdHVbRHAgQIECAAAECBAgQIECAAAECBAgQIECAAAECBAgQIECAAAECBAgQIEDgMgGJdpfRCkyAAAECBAgQIECAAAECBAgQIECAAAECBAgQIECAAAECBAgQIECAAAECdxCQaHeHVTQHAgQIECBAgAABAgQIECBAgAABAgQIECBAgAABAgQIECBAgAABAgQIELhMQKLdZbQCEyBAgAABAgQIECBAgAABAgQIECBAgAABAgQIECBAgAABAgQIECBAgMAdBCTa3WEVzYEAAQIECBAgQIAAAQIECBAgQIAAAQIECBAgQIAAAQIECBAgQIAAAQIELhOQaHcZrcAECBAgQIAAAQIECBAgQIAAAQIECBAgQIAAAQIECBAgQIAAAQIECBAgcAcBiXZ3WEVzIECAAAECBAgQIECAAAECBAgQIECAAAECBAgQIECAAAECBAgQIECAAIHLBCTaXUYrMAECBAgQIECAAAECBAgQIECAAAECBAgQIECAAAECBAgQIECAAAECBAjcQUCi3R1W0RwIECBAgAABAgQIECBAgAABAgQIECBAgAABAgQIECBAgAABAgQIECBA4DIBiXaX0QpMgAABAgQIECBAgAABAgQIECBAgAABAgQIECBAgAABAgQIECBAgAABAncQkGh3h1U0BwIECBAgQIAAAQIECBAgQIAAAQIECBAgQIAAAQIECBAgQIAAAQIECBC4TOCbX/3qV/99WXSBCRAgQIAAAQIECBAgQIAAAQIECBAgQIAAAQIECBAgQIAAAQIECBAgQIDAVy7wza9//WuJdl/5Iho+AQIECBAgQIAAAQIECBAgQIAAAQIECBAgQIAAAQIECBAgQIAAAQIECFwnINHuOluRCRAgQIAAAQIECBAgQIAAAQIECBAgQIAAAQIECBAgQIAAAQIECBAgQOAGAhLtbrCIpkCAAAECBAgQIECAAAECBAgQIECAAAECBAgQIECAAAECBAgQIECAAAEC1wlItLvOVmQCBAgQIECAAAECBAgQIECAAAECBAgQIECAAAECBAgQIECAAAECBAgQuIGARLsbLKIpECBAgAABAgQIECBAgAABAgQIECBAgAABAgQIECBAgAABAgQIECBAgMB1AhLtrrMVmQABAgQIECBAgAABAgQIECBAgAABAgQIECBAgAABAgQIECBAgAABAgRuICDR7gaLaAoECBAgQIAAAQIECBAgQIAAAQIECBAgQIAAAQIECBAgQIAAAQIECBAgcJ2ARLvrbEUmQIAAAQIECBAgQIAAAQIECBAgQIAAAQIECBAgQIAAAQIECBAgQIAAgRsISLS7wSKaAgECBAgQIECAAAECBAgQIECAAAECBAgQIECAAAECBAgQIECAAAECBAhcJyDR7jpbkQkQIECAAAECBAgQIECAAAECBAgQIECAAAECBAgQIECAAAECBAgQIEDgBgIS7W6wiKZAgAABAgQIECBAgAABAgQIECBAgAABAgQIECBAgAABAgQIECBAgAABAtcJSLS7zlZkAgQIECBAgAABAgQIECBAgAABAgQIECBAgAABAgQIECBAgAABAgQIELiBgES7GyyiKRAgQIAAAQIECBAgQIAAAQIECBAgQIAAAQIECBAgQIAAAQIECBAgQIDAdQIS7a6zFZkAAQIECBAgQIAAAQIECBAgQIAAAQIECBAgQIAAAQIECBAgQIAAAQIEbiAg0e4Gi2gKBAgQIECAAAECBAgQIECAAAECBAgQIECAAAECBAgQIECAAAECBAgQIHCdgES762xFJkCAAAECBAgQIECAAAECBAgQIECAAAECBAgQIECAAAECBAgQIECAAIEbCEi0u8EimgIBAgQIECBAgAABAgQIECBAgAABAgQIECBAgAABAgQIECBAgAABAgQIXCcg0e46W5EJECBAgAABAgQIECBAgAABAgQIECBAgAABAgQIECBAgAABAgQIECBA4AYCEu1usIimQIAAAQIECBAgQIAAAQIECBAgQIAAAQIECBAgQIAAAQIECBAgQIAAAQLXCUi0u85WZAIECBAgQIAAAQIECBAgQIAAAQIECBAgQIAAAQIECBAgQIAAAQIECBC4gYBEuxssoikQIECAAAECBAgQIECAAAECBAgQIECAAAECBAgQIECAAAECBAgQIECAwHUCEu2usxWZAAECBAgQIECAAAECBAgQIECAAAECBAgQIECAAAECBAgQIECAAAECBG4gINHuBotoCgQIECBAgAABAgQIECBAgAABAgQIECBAgAABAgQIECBAgAABAgQIECBwnYBEu+tsRSZAgAABAgQIECBAgAABAgQIECBAgAABAgQIECBAgAABAgQIECBAgACBGwhItLvBIpoCAQIECBAgQIAAAQIECBAgQIAAAQIECBAgQIAAAQIECBAgQIAAAQIECFwnINHuOluRCRAgQIAAAQIECBAgQIAAAQIECBAgQIAAAQIECBAgQIAAAQIECBAgQOAGAhLtbrCIpkCAAAECBAgQIECAAAECBAgQIECAAAECBAgQIECAAAECBAgQIECAAAEC1wlItLvOVmQCBAgQIECAAAECBAgQIECAAAECBAgQIECAAAECBAgQIECAAAECBAgQuIGARLsbLKIpECBAgAABAgQIECBAgAABAgQIECBAgAABAgQIECBAgAABAgQIECBAgMB1AhLtrrMVmQABAgQIECBAgAABAgQIECBAgAABAgQIECBAgAABAgQIECBAgAABAgRuICDR7gaLaAoECBAgQIAAAQIECBAgQIAAAQIECBAgQIAAAQIECBAgQIAAAQIECBAgcJ2ARLvrbEUmQIAAAQIECBAgQIAAAQIECBAgQIAAAQIECBAgQIAAAQIECBAgQIAAgRsISLS7wSKaAgECBAgQIECAAAECBAgQIECAAAECBAgQIECAAAECBAgQIECAAAECBAhcJyDR7jpbkQkQIECAAAECBAgQIECAAAECBAgQIECAAAECBAgQIECAAAECBAgQIEDgBgIS7W6wiKZAgAABAgQIECBAgAABAgQIECBAgAABAgQIECBAgAABAgQIECBAgAABAtcJSLS7zlZkAgQIECBAgAABAgQIECBAgAABAgQIECBAgAABAgQIECBAgAABAgQIELiBgES7GyyiKRAgQIAAAQIECBAgQIAAAQIECBAgQIAAAQIECBAgQIAAAQIECBAgQIDAdQIS7a6zFZkAAQIECBAgQIAAAQIECBAgQIAAAQIECBAgQIAAAQIECBAgQIAAAQIEbiAg0e4Gi2gKBAgQIECAAAECBAgQIECAAAECBAgQIECAAAECBAgQIECAAAECBAgQIHCdgES762xFJkCAAAECBAgQIECAAAECBAgQIECAAAECBAgQIECAAAECBAgQIECAAIEbCEi0u8EimgIBAgQIECBAgAABAgQIECBAgAABAgQIECBAgAABAgQIECBAgAABAgQIXCcg0e46W5EJECBAgAABAgQIECBAgAABAgQIECBAgAABAgQIECBAgAABAgQIECBA4AYCEu1usIimQIAAAQIECBAgQIAAAQIECBAgQIAAAQIECBAgQIAAAQIECBAgQIAAAQLXCUi0u85WZAIECBAgQIAAAQIECBAgQIAAAQIECBAgQIAAAQIECBAgQIAAAQIECBC4gYBEuxssoikQIECAAAECBAgQIECAAAECBAgQIECAAAECBAgQIECAAAECBAgQIECAwHUC/wNXZKn6+jYrDAAAAABJRU5ErkJggg==;clipPath=inset(0% 19.33% 3.7% 18%);" parent="1" vertex="1">
          <mxGeometry x="33" y="2882" width="756.48" height="104.62" as="geometry" />
        </mxCell>
        <mxCell id="KbfwHdAT0KXHRWRxRUUH-80" value="Mehr" style="html=1;shadow=0;dashed=0;shape=mxgraph.bootstrap.rrect;rSize=5;strokeColor=none;strokeWidth=1;fillColor=#0085FC;fontColor=#FFFFFF;whiteSpace=wrap;align=center;verticalAlign=middle;spacingLeft=0;fontStyle=0;fontSize=16;spacing=5;" parent="1" vertex="1">
          <mxGeometry x="280" y="2062" width="80" height="40" as="geometry" />
        </mxCell>
        <mxCell id="KbfwHdAT0KXHRWRxRUUH-81" value="Mehr" style="html=1;shadow=0;dashed=0;shape=mxgraph.bootstrap.rrect;rSize=5;strokeColor=none;strokeWidth=1;fillColor=#0085FC;fontColor=#FFFFFF;whiteSpace=wrap;align=center;verticalAlign=middle;spacingLeft=0;fontStyle=0;fontSize=16;spacing=5;" parent="1" vertex="1">
          <mxGeometry x="647.5" y="2062" width="80" height="40" as="geometry" />
        </mxCell>
        <mxCell id="KbfwHdAT0KXHRWRxRUUH-82" value="Datenschutz" style="text;html=1;strokeColor=none;fillColor=none;align=center;verticalAlign=middle;whiteSpace=wrap;rounded=0;" parent="1" vertex="1">
          <mxGeometry x="354" y="3052" width="60" height="30" as="geometry" />
        </mxCell>
        <mxCell id="KbfwHdAT0KXHRWRxRUUH-83" value="Impressum" style="text;html=1;strokeColor=none;fillColor=none;align=center;verticalAlign=middle;whiteSpace=wrap;rounded=0;" parent="1" vertex="1">
          <mxGeometry x="429" y="3052" width="60" height="30" as="geometry" />
        </mxCell>
        <mxCell id="pdq59YxUewBaWuloSBFz-1" value="&lt;h1&gt;Fragen, die Besucher:innen abholen&lt;/h1&gt;&lt;p&gt;Lorem ipsum dolor sit amet, consectetur adipisicing elit, sed do eiusmod tempor incididunt ut labore et dolore magna aliqu?&amp;nbsp;&lt;/p&gt;Lorem ipsum dolor sit amet, consectetur adipisicing elit, sed do eiusmod tempor incididunt ut labore et dolore magna aliqu?" style="text;html=1;strokeColor=none;fillColor=none;spacing=5;spacingTop=-20;whiteSpace=wrap;overflow=hidden;rounded=0;" vertex="1" parent="1">
          <mxGeometry x="81" y="380" width="596" height="120" as="geometry" />
        </mxCell>
      </root>
    </mxGraphModel>
  </diagram>
</mxfile>
